<svg width="200" height="200" viewBox="0 0 200 200" fill="none" xmlns="http://www.w3.org/2000/svg">
<path d="M34.512 179.04C-1.65196 158.16 -1.65196 124.304 34.512 103.44C70.676 82.576 129.312 82.56 165.488 103.44C201.664 124.32 201.652 158.176 165.488 179.04C129.324 199.904 70.68 199.924 34.512 179.04Z" fill="#F5F5F5"/>
<path d="M63.456 180.048C79.1498 180.048 91.872 172.704 91.872 163.644C91.872 154.584 79.1498 147.24 63.456 147.24C47.7623 147.24 35.04 154.584 35.04 163.644C35.04 172.704 47.7623 180.048 63.456 180.048Z" fill="#E0E0E0"/>
<path d="M129.134 155.977C148.838 145.35 160.524 128.786 155.235 118.98C149.947 109.175 129.686 109.841 109.982 120.469C90.278 131.096 78.5918 147.66 83.8803 157.465C89.1688 167.271 109.429 166.604 129.134 155.977Z" fill="#E0E0E0"/>
<path d="M148.74 132.684C152.68 127.988 158.852 124.928 165.792 123.12C172.648 121.34 173.876 117.12 169.332 115.756C164.184 114.204 157.76 117.052 153.616 121.016C146.4 127.924 145.492 133.2 145.492 133.2L148.74 132.684Z" fill="#F59566"/>
<path opacity="0.15" d="M148.74 132.684C152.68 127.988 158.852 124.928 165.792 123.12C172.648 121.34 173.876 117.12 169.332 115.756C164.184 114.204 157.76 117.052 153.616 121.016C146.4 127.924 145.492 133.2 145.492 133.2L148.74 132.684Z" fill="black"/>
<path d="M146.712 132.4C146.683 132.406 146.653 132.406 146.624 132.4C146.6 132.388 146.579 132.372 146.562 132.353C146.544 132.333 146.531 132.31 146.522 132.285C146.514 132.26 146.51 132.234 146.512 132.208C146.514 132.181 146.52 132.156 146.532 132.132C152.38 120.132 165.332 117.18 168.468 117.404C168.52 117.408 168.569 117.433 168.604 117.472C168.638 117.512 168.655 117.564 168.652 117.616C168.647 117.669 168.622 117.717 168.581 117.752C168.541 117.786 168.489 117.803 168.436 117.8C165.364 117.568 152.648 120.492 146.892 132.308C146.872 132.337 146.846 132.361 146.814 132.377C146.783 132.393 146.747 132.401 146.712 132.4Z" fill="white"/>
<path d="M145.492 133.932C145.492 134.125 145.544 134.314 145.641 134.481C145.738 134.648 145.878 134.785 146.046 134.881C146.214 134.976 146.404 135.025 146.597 135.022C146.79 135.02 146.978 134.967 147.144 134.868C150.808 132.736 156.152 131.556 164.8 134.02C169.4 135.328 171.664 134.452 172.632 132.58C173.712 130.5 171.432 128.488 168.832 127.54C159.98 124.304 151.992 126.512 145.492 132.968V133.932Z" fill="#F59566"/>
<path d="M146 134.104C145.972 134.104 145.943 134.099 145.917 134.088C145.891 134.077 145.868 134.061 145.848 134.04C145.811 134.002 145.791 133.951 145.791 133.898C145.791 133.845 145.811 133.794 145.848 133.756C153.492 126.924 165.332 128.256 169.812 130.92C169.857 130.947 169.89 130.99 169.904 131.041C169.917 131.092 169.91 131.146 169.884 131.192C169.857 131.238 169.812 131.271 169.761 131.284C169.709 131.298 169.654 131.29 169.608 131.264C165.208 128.652 153.608 127.352 146.116 134.064C146.082 134.088 146.042 134.102 146 134.104Z" fill="white"/>
<path d="M59.968 149.86C56.608 144.732 50.84 140.964 44.16 138.352C37.568 135.776 36.844 131.444 41.516 130.62C46.812 129.688 52.856 133.276 56.504 137.7C62.856 145.412 63.132 150.768 63.132 150.768L59.968 149.86Z" fill="#F59566"/>
<path opacity="0.15" d="M59.968 149.86C56.608 144.732 50.84 140.964 44.16 138.352C37.568 135.776 36.844 131.444 41.516 130.62C46.812 129.688 52.856 133.276 56.504 137.7C62.856 145.412 63.132 150.768 63.132 150.768L59.968 149.86Z" fill="black"/>
<path d="M62 149.828C62.029 149.834 62.0589 149.834 62.088 149.828C62.1379 149.81 62.1788 149.773 62.202 149.725C62.2251 149.677 62.2287 149.622 62.212 149.572C57.812 136.968 45.316 132.508 42.164 132.372C42.1116 132.37 42.0604 132.388 42.0215 132.423C41.9826 132.459 41.9591 132.508 41.956 132.56C41.9548 132.613 41.974 132.665 42.0098 132.704C42.0455 132.744 42.0949 132.768 42.148 132.772C45.228 132.9 57.508 137.304 61.832 149.716C61.8475 149.748 61.8713 149.775 61.9008 149.795C61.9303 149.814 61.9646 149.826 62 149.828Z" fill="white"/>
<path d="M63.16 150.524C63.1287 150.808 63.0246 151.08 62.8578 151.312C62.691 151.544 62.4671 151.73 62.2078 151.85C61.9485 151.971 61.6625 152.023 61.3774 152C61.0922 151.978 60.8176 151.883 60.58 151.724C57.188 149.452 52.136 147.976 43.86 149.324C39.14 150.08 36.996 148.924 36.26 146.968C35.436 144.776 37.94 143.052 40.632 142.416C49.804 140.248 57.476 143.384 63.168 150.556L63.16 150.524Z" fill="#F59566"/>
<path d="M62.528 151.6C62.556 151.604 62.5844 151.602 62.6114 151.593C62.6383 151.585 62.6632 151.571 62.684 151.552C62.7209 151.514 62.7416 151.463 62.7416 151.41C62.7416 151.357 62.7209 151.306 62.684 151.268C55.884 143.584 43.984 143.508 39.22 145.624C39.1712 145.646 39.1331 145.686 39.1139 145.736C39.0948 145.786 39.0963 145.841 39.118 145.89C39.1398 145.939 39.18 145.977 39.2299 145.996C39.2798 146.015 39.3352 146.014 39.384 145.992C44.052 143.916 55.732 143.992 62.384 151.532C62.4014 151.553 62.4234 151.571 62.4483 151.582C62.4732 151.594 62.5005 151.6 62.528 151.6Z" fill="white"/>
<path d="M152.328 58.468L152.264 58.436L137.016 49.66L136.924 49.616C129.8 46.016 120.296 47.1 110.072 53.708C89.536 66.988 73.888 97.556 75.12 121.984C75.732 134.156 80.428 142.504 87.52 146.176L87.58 146.208L102.832 154.988L102.904 155.028C110.028 158.628 119.54 157.56 129.772 150.944C150.308 137.664 165.956 107.096 164.724 82.668C164.12 70.488 159.424 62.14 152.328 58.468Z" fill="#37474F"/>
<path d="M102.308 154.704L87.6 146.2L87.5281 146.156C80.4361 142.476 75.7441 134.128 75.1281 121.972C74.5801 111.076 77.3921 98.968 82.4881 87.724L82.5881 87.476L97.7401 96.5C92.6361 107.744 89.832 119.852 90.38 130.748C90.96 142.664 95.4681 150.912 102.308 154.704Z" fill="#263238"/>
<path d="M129.78 150.936C150.316 137.656 165.964 107.088 164.732 82.6599C163.5 58.2319 145.852 49.1999 125.316 62.4799C104.78 75.7599 89.128 106.328 90.36 130.752C91.592 155.176 109.244 164.216 129.78 150.936Z" fill="#455A64"/>
<path d="M147.172 56.572L121.432 109.6L115.892 103.6C114.24 101.88 111.98 100.877 109.596 100.805C107.213 100.734 104.896 101.6 103.144 103.218C101.392 104.836 100.345 107.076 100.226 109.458C100.108 111.84 100.929 114.173 102.512 115.956L117.108 131.768C118.713 133.512 120.937 134.557 123.304 134.68C123.472 134.68 123.64 134.68 123.808 134.68C124.25 134.68 124.691 134.648 125.128 134.584C126.597 134.37 127.992 133.8 129.19 132.922C130.388 132.045 131.353 130.888 132 129.552L161.52 68.752C158.492 62 153.452 57.816 147.172 56.572Z" fill="#37474F"/>
<path d="M168.076 39.108C167.916 39.016 167.748 38.928 167.58 38.848C165.693 37.9338 163.521 37.8053 161.54 38.4907C159.559 39.1761 157.93 40.6194 157.012 42.504L124.26 109.968L122.396 107.968C121.858 107.38 121.232 106.88 120.54 106.484C119.564 105.924 115.412 103.52 114.74 103.132C113.102 102.184 111.179 101.856 109.319 102.205C107.459 102.555 105.786 103.56 104.604 105.037C103.422 106.515 102.81 108.368 102.877 110.259C102.944 112.15 103.688 113.954 104.972 115.344L119.568 131.152C120.115 131.746 120.751 132.252 121.452 132.652C122.404 133.192 126.54 135.592 127.22 135.984C128.161 136.529 129.203 136.874 130.283 136.997C131.363 137.121 132.457 137.021 133.496 136.703C134.535 136.385 135.498 135.856 136.324 135.149C137.15 134.443 137.821 133.574 138.296 132.596L177.044 52.784C177.915 50.9852 178.074 48.9235 177.489 47.0125C176.903 45.1014 175.617 43.4824 173.888 42.48L168.076 39.108Z" fill="#F59566"/>
<path opacity="0.15" d="M168.076 39.108C167.916 39.016 167.748 38.928 167.58 38.848C165.693 37.9338 163.521 37.8053 161.54 38.4907C159.559 39.1761 157.93 40.6194 157.012 42.504L124.26 109.968L122.396 107.968C121.858 107.38 121.232 106.88 120.54 106.484C119.564 105.924 115.412 103.52 114.74 103.132C113.102 102.184 111.179 101.856 109.319 102.205C107.459 102.555 105.786 103.56 104.604 105.037C103.422 106.515 102.81 108.368 102.877 110.259C102.944 112.15 103.688 113.954 104.972 115.344L119.568 131.152C120.115 131.746 120.751 132.252 121.452 132.652C122.404 133.192 126.54 135.592 127.22 135.984C128.161 136.529 129.203 136.874 130.283 136.997C131.363 137.121 132.457 137.021 133.496 136.703C134.535 136.385 135.498 135.856 136.324 135.149C137.15 134.443 137.821 133.574 138.296 132.596L177.044 52.784C177.915 50.9852 178.074 48.9235 177.489 47.0125C176.903 45.1014 175.617 43.4824 173.888 42.48L168.076 39.108Z" fill="black"/>
<path opacity="0.15" d="M127.2 135.968C126.528 135.568 122.4 133.168 121.436 132.636C120.735 132.235 120.099 131.73 119.552 131.136L104.956 115.328C104.312 114.626 103.801 113.813 103.448 112.928L109.252 116.276C109.604 117.163 110.118 117.977 110.768 118.676L125.36 134.484C125.897 135.067 126.517 135.567 127.2 135.968Z" fill="black"/>
<path opacity="0.15" d="M164.652 43.424C163.889 44.1083 163.267 44.9343 162.82 45.856L129.132 115.248L124.26 109.968L157.012 42.504C157.458 41.5806 158.082 40.7542 158.848 40.072L164.652 43.424Z" fill="black"/>
<path d="M173.388 42.1999C171.501 41.2879 169.33 41.1606 167.349 41.8457C165.368 42.5309 163.74 43.9728 162.82 45.8559L129.132 115.248L122.4 107.952C120.959 106.488 119.006 105.643 116.953 105.595C114.9 105.547 112.908 106.3 111.401 107.694C109.893 109.088 108.987 111.015 108.875 113.065C108.763 115.116 109.453 117.129 110.8 118.68L125.392 134.492C126.266 135.437 127.356 136.154 128.57 136.582C129.784 137.01 131.084 137.135 132.357 136.947C133.63 136.758 134.838 136.262 135.875 135.501C136.913 134.74 137.75 133.737 138.312 132.58L177.06 52.7679C177.973 50.8794 178.099 48.7056 177.411 46.7241C176.722 44.7426 175.275 43.1154 173.388 42.1999Z" fill="#F59566"/>
<path d="M62.892 50C59.84 50 57.752 50.8 55.584 53.88C53.584 56.712 48.128 66.152 48.128 66.152C48.128 66.152 44.128 57.944 43.728 56.308C43.328 54.672 43.352 53.944 43.728 53.232C44.2786 52.3904 44.6238 51.4314 44.736 50.432C44.892 48.464 45.372 46.78 44.932 46.724C43.712 46.656 43.664 48.224 43.024 49.148C42.9427 49.2372 42.8416 49.306 42.7287 49.3488C42.6159 49.3916 42.4946 49.4072 42.3746 49.3943C42.2546 49.3815 42.1393 49.3405 42.0381 49.2748C41.9369 49.2091 41.8526 49.1204 41.792 49.016C41.524 48.468 41.668 47.568 41.54 46.92C41.5747 46.5594 41.6322 46.2014 41.712 45.848C42.1741 45.9311 42.646 45.9446 43.112 45.888C43.64 46.716 44 47.064 44.736 46.728C44.832 46.576 44.42 45.528 43.936 44.728C43.8634 44.6056 43.7456 44.5166 43.608 44.48C42.7207 44.2553 41.7946 44.2293 40.896 44.404C40.8281 44.411 40.7623 44.4316 40.7025 44.4646C40.6427 44.4976 40.5902 44.5423 40.548 44.596C40.2103 45.0908 39.9412 45.629 39.748 46.196C39.696 46.368 39.536 46.364 39.496 46.216C39.096 44.284 39.096 41.54 39.096 40.256C39.096 39.244 37.62 39.084 37.568 40.532C37.4803 42.4749 37.5137 44.4213 37.668 46.36C37.668 46.536 37.492 46.62 37.42 46.428C37.164 45.744 36.536 43.676 36.272 40.108C36.2 39.148 34.648 38.992 34.672 40.34C34.7328 42.7299 35.0439 45.1069 35.6 47.432C35.648 47.6 35.492 47.748 35.376 47.556C34.6479 46.1528 34.0661 44.6784 33.64 43.156C33.308 41.996 31.76 42.292 32.04 43.736C32.524 46.324 33.292 49.596 34.44 51.936C35.664 54.436 36.72 55.688 37.328 57.652C37.936 59.616 40.452 70.74 43.144 75.076C45.252 78.476 47.664 78.16 50.26 76.368C52.856 74.576 62.132 61.652 62.132 61.652L62.892 50Z" fill="#FFA8A7"/>
<path d="M48.1281 66.1481C48.1281 66.1481 49.4281 68.3521 49.6281 70.1161C49.9585 68.4033 49.6299 66.6289 48.7081 65.1481L48.1281 66.1481Z" fill="#F28F8F"/>
<path d="M63.5401 50C61.9881 49.84 60.0561 49.788 57.9041 51.144C55.7521 52.5 55.0001 54.388 53.9561 56.04C52.9121 57.692 49.3041 63.544 49.3041 63.544C49.3041 63.544 50.6281 69.1 55.8921 70.244L63.7761 59.548L63.5401 50Z" fill="#455A64"/>
<path d="M70.608 147.692C71.008 147.64 71.54 149.004 71.548 149.448C71.556 149.892 71.108 150.848 70.52 151.744C69.7341 152.811 69.0825 153.97 68.58 155.196C68.128 156.428 67.712 157.236 66.452 158.848C65.052 160.644 61.764 163.648 56.772 162.344C55.552 162.024 54.944 161.64 54.5 161.196C54.3052 160.999 54.1694 160.752 54.1079 160.482C54.0464 160.212 54.0616 159.93 54.152 159.668L70.608 147.692Z" fill="#263238"/>
<path d="M60.8 146.132V146.176C60.7428 146.55 60.7536 146.93 60.832 147.3C60.9692 148.402 60.8716 149.52 60.5455 150.581C60.2193 151.642 59.6722 152.622 58.94 153.456C58.2446 154.182 57.4596 154.816 56.604 155.344C54.076 156.944 53.804 158.036 54.16 159.668C55.008 161.568 60.74 162.724 64.036 159.896C65.4582 158.792 66.5454 157.314 67.176 155.628C67.6544 154.42 68.2102 153.244 68.84 152.108C69.476 150.908 70.684 149.556 70.72 148.32C70.74 147.64 70.068 146.376 69.416 145.336C68.816 144.38 68.196 143.472 67.656 143.576L67.808 144.116C67.356 144.584 66.704 144.76 66.312 145.316C65.824 145.992 65.84 146.916 65.54 147.676C65.5302 147.715 65.5119 147.752 65.4863 147.783C65.4607 147.814 65.4285 147.839 65.392 147.856C65.3498 147.863 65.3064 147.856 65.2682 147.837C65.23 147.818 65.1991 147.786 65.18 147.748C65.1474 147.67 65.1323 147.585 65.136 147.5L65.1 146.336C65.118 146.112 65.0587 145.889 64.932 145.704C64.62 145.352 63.852 145.392 63.424 145.376C62.8479 145.381 62.2725 145.415 61.7 145.48C61.5016 145.46 61.3028 145.513 61.14 145.628C60.9765 145.756 60.8576 145.932 60.8 146.132Z" fill="#37474F"/>
<path d="M52.328 122.876C53.66 127.256 59.888 142.42 60.26 143.332L61.5 146.34C62.3166 146.609 63.1915 146.646 64.028 146.448C64.16 147.9 64.38 150.176 64.464 151.324C64.496 152.656 64.612 154.304 64.324 155.62C64.08 156.74 63.796 157.916 63.584 159.04C63.492 159.536 63.4 160.036 63.324 160.536C63.195 161.06 63.2385 161.611 63.448 162.108C63.5756 162.325 63.7441 162.515 63.944 162.668C64.8325 163.366 65.9553 163.695 67.08 163.588C67.6747 163.559 68.2502 163.369 68.744 163.036C69.712 162.344 70.052 161.14 70.544 160.116C71.08 159.008 70.908 158.884 70.944 157.696C70.976 156.864 71.208 154.752 71.54 152.544C71.872 150.336 73.304 142.576 73.992 134.844C74.2724 131.41 74.2724 127.958 73.992 124.524C79.456 109.68 81.888 100.852 82.604 95.924C83.328 90.916 82.98 89.124 82.888 86.248L56.316 86.888C54.188 100.624 50.54 117.004 52.328 122.876Z" fill="#FFA8A7"/>
<path d="M51.912 111.916C52.46 106.868 56.236 87.464 56.236 87.464H83.004C83.004 87.464 83.176 91.188 83.128 92.9C83.08 94.612 82.528 97.736 81.572 101.7C80.616 105.664 77.072 116.852 76.372 118.5C75.672 120.148 74.372 124.928 74.372 124.928C75.028 133.904 73.32 141.96 72.04 152.668C72.04 152.668 71.668 154.112 67.876 153.828C64.188 153.548 63.444 152.188 63.444 152.188L63.2 142.952C63.2 142.952 61.2 143.568 60 143.288C60 143.288 52.076 123.724 51.692 122.548C51.308 121.372 51.364 116.964 51.912 111.916Z" fill="#F59566"/>
<path opacity="0.45" d="M51.912 111.916C52.46 106.868 56.236 87.464 56.236 87.464H83.004C83.004 87.464 83.176 91.188 83.128 92.9C83.08 94.612 82.528 97.736 81.572 101.7C80.616 105.664 77.072 116.852 76.372 118.5C75.672 120.148 74.372 124.928 74.372 124.928C75.028 133.904 73.32 141.96 72.04 152.668C72.04 152.668 71.668 154.112 67.876 153.828C64.188 153.548 63.444 152.188 63.444 152.188L63.2 142.952C63.2 142.952 61.2 143.568 60 143.288C60 143.288 52.076 123.724 51.692 122.548C51.308 121.372 51.364 116.964 51.912 111.916Z" fill="black"/>
<path opacity="0.2" d="M63.2681 100.112C59.4761 96.6961 58.6321 93.9761 58.6321 93.9761C60.5385 96.1239 62.796 97.9323 65.3081 99.3241C65.3081 99.3241 61.7081 118.332 61.9721 122.24C62.2361 126.148 63.2001 142.952 63.2001 142.952C63.2001 143.112 60.6481 125.18 60.5721 123.752C60.4001 119.972 63.2681 100.112 63.2681 100.112Z" fill="black"/>
<path d="M71.6 162.184C71.972 162.292 71.924 163.404 71.756 163.82C71.3397 164.546 70.7502 165.158 70.04 165.6C68.9993 166.309 68.1312 167.243 67.5 168.332C66.473 169.903 65.1145 171.23 63.52 172.22C61.3962 173.425 58.8931 173.776 56.52 173.2C54.008 172.488 53.776 171.872 53.796 170.924L71.6 162.184Z" fill="#263238"/>
<path d="M63.8401 156.368C63.1801 159.568 62.0321 161.92 59.3721 163.896C57.2521 165.472 55.7161 166.272 54.0241 167.676C53.3081 168.276 53.2481 169.552 53.7961 170.928C54.9401 171.844 56.5641 172.372 58.7441 172.368C61.1841 172.368 62.1201 171.932 63.5201 170.976C64.2078 170.506 64.8482 169.97 65.4321 169.376C66.6041 168.2 67.4321 166.748 68.2641 165.816C69.0961 164.884 70.9401 163.932 71.4641 162.808C71.7521 162.192 71.6321 160.764 71.4401 159.548C71.2641 158.432 71.6041 156.472 71.0681 156.348L70.9921 157.148C70.9481 157.328 70.8361 157.42 70.4601 157.548C70.1222 157.621 69.7735 157.631 69.4321 157.576C69.3108 157.532 69.1787 157.527 69.0545 157.562C68.9304 157.598 68.8204 157.671 68.7401 157.772C68.3801 158.196 68.2841 158.796 67.8201 159.148C67.7901 159.174 67.7545 159.193 67.7161 159.204C67.6982 159.214 67.678 159.219 67.6575 159.218C67.6371 159.217 67.6172 159.211 67.6001 159.2C67.5877 159.181 67.5795 159.159 67.5761 159.136C67.5726 159.113 67.574 159.09 67.5801 159.068L67.7121 157.868C67.728 157.749 67.728 157.627 67.7121 157.508C67.687 157.396 67.6383 157.292 67.5693 157.201C67.5003 157.11 67.4126 157.034 67.3121 156.98C66.9752 156.784 66.6132 156.635 66.2361 156.536C65.8436 156.429 65.4417 156.361 65.0361 156.332C64.638 156.281 64.2344 156.293 63.8401 156.368Z" fill="#455A64"/>
<path d="M80.588 51.148C80.588 51.148 81.688 52.66 82.588 55.776C83.6835 60.8935 84.2465 66.1106 84.268 71.344C84.268 78.412 83.316 89.864 83.316 89.864C75.112 93.976 61.88 91.544 56.056 87.532C56.292 86.26 56.492 79.572 56.952 75.16C57.26 67.592 57.516 63.628 57.568 60.26C57.676 53.532 61.024 50.056 63.568 50.004L69.992 50.104L80.588 51.148Z" fill="#F59566"/>
<path d="M82.612 87.7881C81.392 88.7921 79.012 90.7201 78.56 91.6921C78.056 92.8041 77.76 94.4921 77.42 95.1241C77.08 95.7561 77.592 96.0761 78.296 95.8481C79 95.6201 79.42 95.0241 79.964 93.5681C80.508 92.1121 82.02 90.9721 82.02 90.9721L82.612 87.7881Z" fill="#F28F8F"/>
<path d="M78.156 100.88C78.448 101.444 79.128 101.448 79.756 101.496C80.5217 101.584 81.2972 101.496 82.024 101.24C82.8975 100.988 83.6635 100.455 84.204 99.7241C84.82 98.8361 84.98 97.7241 85.332 96.7041C86.068 94.5641 88.26 93.0201 88.62 90.7521C88.768 89.8161 88.768 88.7121 89.02 88.1321C89.176 87.7881 92.78 81.5841 94.068 78.8961C95.3 76.3121 96.224 75.0961 95.104 71.9921C93.984 68.8881 90.172 57.9641 87.472 54.1681C85.944 52.0161 83.516 51.4001 80.572 51.1481C78.332 56.9801 80.936 63.0081 80.936 63.0081L86.88 74.4401C86.88 74.4401 84.576 82.3121 83.136 86.6881C82.736 87.8881 81.936 88.6561 81.02 90.0041C80.62 90.5881 79.716 91.6041 79.396 92.2401C78.996 93.0401 78.996 93.5681 78.796 94.7001C78.484 96.5041 78 100.612 78.156 100.88Z" fill="#FFA8A7"/>
<path d="M80.272 51.116C81.82 51.176 84.044 51.44 85.372 52.112C86.7 52.784 87.624 53.612 89.152 56.676C90.68 59.74 92.916 65.692 92.916 65.692C92.916 65.692 92.176 70.184 85.072 71.348L80.272 62.496C80.272 62.496 78.132 56.98 80.272 51.116Z" fill="#455A64"/>
<path d="M61.816 36.82C62.0259 37.1996 62.2077 37.5939 62.36 38C62.5967 38.5304 62.899 39.029 63.26 39.484C64.18 40.544 65.472 41.32 66.652 42.072C67.364 42.528 68.18 42.956 69.052 42.832C69.924 42.708 70.896 42.896 71.796 42.976L74.944 43.26L74.768 46.568C74.768 46.568 75.168 45.692 75.692 44.644C76.148 43.744 78.06 39.18 78.068 39.16C79.016 36.9 80.14 33.884 79.008 31.508C78.7506 30.9229 78.3208 30.4303 77.776 30.096C77.8856 29.7307 77.921 29.3472 77.88 28.968C77.8171 28.4297 77.6342 27.9124 77.3448 27.4541C77.0554 26.9958 76.667 26.6083 76.208 26.32C75.3121 25.7146 74.3022 25.2981 73.24 25.096C71.8312 24.7719 70.3896 24.6122 68.944 24.62C67.5276 24.6632 66.1174 24.8251 64.728 25.104C63.953 25.2472 63.1679 25.3288 62.38 25.348C62.0406 25.3703 61.6998 25.3542 61.364 25.3C60.9466 25.1753 60.5366 25.0271 60.136 24.856C60.1012 24.8414 60.0638 24.8339 60.026 24.8339C59.9882 24.8339 59.9508 24.8414 59.916 24.856C59.8842 24.8771 59.8574 24.9049 59.8374 24.9373C59.8174 24.9698 59.8046 25.0062 59.8 25.044C59.696 25.5434 59.7003 26.0593 59.8128 26.5568C59.9253 27.0544 60.1433 27.522 60.452 27.928C60.2721 27.9035 60.0968 27.8522 59.932 27.776C59.7449 27.6894 59.5644 27.5891 59.392 27.476C59.0984 27.2792 58.8413 27.0329 58.632 26.748C58.6031 26.7034 58.5591 26.6707 58.508 26.656C58.428 26.656 58.364 26.712 58.316 26.776C58.1001 27.0971 57.9531 27.4594 57.8843 27.8401C57.8154 28.2208 57.8262 28.6117 57.916 28.988C58.0924 29.7434 58.4493 30.4447 58.956 31.032C58.7088 31.4314 58.5661 31.8866 58.5409 32.3556C58.5157 32.8246 58.609 33.2925 58.812 33.716C58.9899 34.0917 59.2292 34.4351 59.52 34.732C59.88 35.1 60.32 35.4 60.684 35.744C61.1014 36.058 61.4813 36.4191 61.816 36.82Z" fill="#37474F"/>
<path d="M71.4041 31.3081C71.3924 31.9054 71.4693 32.5012 71.6321 33.0761C71.8219 33.5811 72.1274 34.0345 72.5241 34.4001C72.9728 34.7808 73.3877 35.1997 73.7641 35.6521C74.1703 36.3563 74.4085 37.1447 74.4601 37.9561C74.4624 38.1951 74.5182 38.4305 74.6234 38.6451C74.7286 38.8596 74.8805 39.0479 75.0681 39.1961C75.9241 39.7281 76.4361 38.7001 76.8921 38.1961C77.4801 37.6521 79.2281 36.9961 80.0361 38.8441C80.8721 40.7641 79.3281 43.3081 77.9241 43.7001C75.5041 44.3761 74.9761 42.7281 74.9761 42.7281L74.5121 51.3681C73.1481 53.9561 69.9401 54.7801 67.8321 54.3681C66.0121 54.0121 65.0121 52.7361 66.7241 50.8881L66.8161 48.2561C66.8161 48.2561 64.6321 48.5161 63.5801 48.3161C61.8241 47.9881 60.9561 46.4961 60.4801 44.5721C59.7241 41.4801 59.3761 38.2281 60.3161 31.2641C60.7441 31.0281 62.4761 32.3761 65.1161 32.5561C67.2859 32.709 69.4571 32.2781 71.4041 31.3081Z" fill="#FFA8A7"/>
<path d="M66.8 48.248C66.8 48.248 70.76 47.584 72.16 46.896C72.9816 46.5004 73.6647 45.8661 74.12 45.076C73.8863 45.8739 73.4945 46.6166 72.968 47.26C71.92 48.512 66.764 49.296 66.764 49.296L66.8 48.248Z" fill="#F28F8F"/>
<path d="M68.86 34.4L70.704 34.964C70.7745 34.7121 70.7447 34.4427 70.621 34.2123C70.4972 33.9818 70.289 33.8083 70.04 33.728C69.9184 33.6924 69.7908 33.6816 69.665 33.6963C69.5391 33.711 69.4175 33.7509 69.3074 33.8136C69.1973 33.8763 69.1009 33.9606 69.024 34.0613C68.9472 34.1621 68.8914 34.2773 68.86 34.4Z" fill="#263238"/>
<path d="M68.22 43.136L65.504 44.056C65.5569 44.2375 65.6457 44.4066 65.7652 44.5531C65.8846 44.6997 66.0323 44.8208 66.1994 44.9092C66.3665 44.9976 66.5497 45.0516 66.7381 45.0679C66.9265 45.0841 67.1162 45.0624 67.296 45.004C67.6615 44.8722 67.9618 44.6042 68.134 44.256C68.3063 43.9078 68.3371 43.5064 68.22 43.136Z" fill="#F28F8F"/>
<path d="M68 43.8C67.6455 43.8003 67.3011 43.9183 67.0209 44.1355C66.7408 44.3527 66.5407 44.6568 66.452 45C66.7262 45.0901 67.0219 45.0901 67.296 45C67.549 44.9106 67.7729 44.7538 67.9434 44.5466C68.114 44.3393 68.2248 44.0896 68.264 43.824C68.1769 43.8082 68.0886 43.8001 68 43.8Z" fill="#F28F8F"/>
<path d="M60.6281 34.692L62.504 34.448C62.4898 34.3265 62.4514 34.2091 62.3911 34.1028C62.3307 33.9964 62.2497 33.9032 62.1528 33.8286C62.0558 33.7541 61.945 33.6997 61.8267 33.6686C61.7084 33.6376 61.5851 33.6306 61.464 33.648C61.2167 33.6801 60.9914 33.8067 60.8355 34.0014C60.6797 34.1961 60.6053 34.4436 60.6281 34.692Z" fill="#263238"/>
<path d="M72.16 35.4921L78.348 37.6001C78.0013 37.6041 77.6601 37.6877 77.3508 37.8444C77.0415 38.0011 76.7723 38.2268 76.564 38.5041L72.184 36.8401L72.16 35.4921Z" fill="#263238"/>
<path d="M61.552 37.9081C61.545 38.0076 61.5579 38.1076 61.5901 38.2021C61.6223 38.2965 61.6731 38.3836 61.7394 38.4581C61.8058 38.5327 61.8864 38.5932 61.9765 38.6361C62.0666 38.6791 62.1643 38.7035 62.264 38.7081C62.3633 38.7091 62.4618 38.6906 62.554 38.6536C62.6461 38.6166 62.73 38.5618 62.801 38.4923C62.8719 38.4229 62.9285 38.3401 62.9674 38.2488C63.0064 38.1575 63.027 38.0594 63.028 37.9601C63.0351 37.8605 63.0221 37.7606 62.9899 37.6661C62.9578 37.5716 62.907 37.4846 62.8407 37.41C62.7743 37.3355 62.6937 37.2749 62.6036 37.232C62.5135 37.1891 62.4157 37.1646 62.316 37.1601C62.2168 37.159 62.1182 37.1775 62.0261 37.2146C61.934 37.2516 61.85 37.3064 61.7791 37.3758C61.7082 37.4453 61.6516 37.528 61.6126 37.6194C61.5737 37.7107 61.5531 37.8088 61.552 37.9081Z" fill="#263238"/>
<path d="M68.62 37.908C68.6209 38.0531 68.6644 38.1948 68.7452 38.3154C68.8259 38.436 68.9404 38.5302 69.0743 38.5862C69.2082 38.6423 69.3556 38.6577 69.4982 38.6306C69.6408 38.6035 69.7723 38.535 69.8763 38.4337C69.9802 38.3325 70.0522 38.2029 70.083 38.061C70.1139 37.9192 70.1024 37.7714 70.0499 37.6361C69.9975 37.5008 69.9064 37.3839 69.788 37.2999C69.6695 37.216 69.5291 37.1687 69.384 37.164C69.1842 37.1618 68.9916 37.2389 68.8485 37.3783C68.7053 37.5177 68.6232 37.7082 68.62 37.908Z" fill="#263238"/>
<path d="M57.9 35.9401C57.9453 36.2636 58.0843 36.5667 58.3 36.8121C58.3743 36.9033 58.4276 37.0098 58.456 37.1241C58.6 37.7201 58.724 38.8481 59.008 39.4801C59.2009 39.9894 59.5493 40.4251 60.0038 40.7253C60.4583 41.0254 60.9958 41.1747 61.54 41.1521C61.8298 41.1629 62.1199 41.1388 62.404 41.0801H62.468C62.7146 41.022 62.9516 40.9291 63.172 40.8041L63.212 40.7761L63.272 40.7401L63.348 40.6881L63.416 40.6321L63.492 40.5721C63.5187 40.5539 63.5429 40.5324 63.564 40.5081C63.6123 40.4644 63.6578 40.4176 63.7 40.3681C63.9361 40.104 64.1267 39.8026 64.264 39.4761C64.632 38.6521 64.536 37.5001 65.136 37.3641H65.208H65.288C66.088 37.3641 66.016 38.6321 66.488 39.5281C66.96 40.4241 67.688 41.3001 69.476 41.3241H69.704C69.7653 41.3282 69.8267 41.3282 69.888 41.3241C70.032 41.3153 70.1751 41.2952 70.316 41.2641L70.448 41.2321C70.4913 41.2224 70.534 41.2104 70.576 41.1961L70.66 41.1721C70.8275 41.113 70.9884 41.0366 71.14 40.9441C71.1957 40.9118 71.2492 40.8757 71.3 40.8361C71.3993 40.7634 71.4917 40.6817 71.576 40.5921C71.8041 40.3491 71.9869 40.0673 72.116 39.7601C72.392 39.1401 72.464 38.0121 72.6 37.4241C72.6238 37.3033 72.67 37.188 72.736 37.0841C72.9496 36.8499 73.0888 36.5575 73.136 36.2441C73.1456 36.0835 73.1022 35.9241 73.0127 35.7905C72.9231 35.6568 72.7922 35.5562 72.64 35.5041L72.204 35.4481C70.804 35.2761 68.98 35.2041 67.888 35.5001C66.52 35.8721 66.044 36.3001 65.28 36.3001C64.516 36.3001 64.104 35.8281 62.804 35.4041C61.772 35.0681 60.064 35.0801 58.76 35.2001L58.36 35.2401C58.2177 35.291 58.0959 35.3868 58.0129 35.5131C57.9299 35.6394 57.8903 35.7893 57.9 35.9401ZM66.908 36.8001C67.016 36.6661 67.1527 36.5581 67.308 36.4841C67.3293 36.4685 67.3521 36.4551 67.376 36.4441H67.416C67.476 36.4121 67.54 36.3801 67.608 36.3521L67.788 36.2801C67.9789 36.2075 68.1739 36.146 68.372 36.0961L68.604 36.0401C68.804 36.0001 69.004 35.9681 69.204 35.9481C69.2519 35.9443 69.3001 35.9443 69.348 35.9481C70.664 35.8401 71.488 36.1521 71.788 36.4201C72.088 36.6881 71.956 37.9201 71.832 38.5401V38.5841C71.832 38.5841 71.832 38.6161 71.832 38.6321C71.832 38.7081 71.8 38.7921 71.776 38.8841C71.752 38.9761 71.748 38.9841 71.732 39.0361C71.704 39.1201 71.676 39.2041 71.644 39.2921C71.6323 39.3221 71.619 39.3515 71.604 39.3801C71.5984 39.3978 71.5917 39.4152 71.584 39.4321L71.556 39.4921L71.52 39.5641L71.476 39.6481C71.476 39.6761 71.44 39.7041 71.42 39.7321C71.4037 39.7628 71.385 39.7923 71.364 39.8201C71.1577 40.1118 70.8795 40.3454 70.5565 40.4981C70.2334 40.6509 69.8764 40.7177 69.52 40.6921C69.1619 40.7116 68.8037 40.6555 68.4687 40.5273C68.1337 40.3991 67.8296 40.2017 67.576 39.9481C67.2602 39.5937 67.0412 39.1638 66.94 38.7001C66.744 38.0001 66.652 37.1761 66.908 36.8001ZM59.156 36.1561C59.2512 36.0715 59.3592 36.0026 59.476 35.9521H59.5L59.644 35.8961L59.732 35.8681H59.804H59.852H59.872H59.944C60.036 35.8681 60.136 35.8321 60.248 35.8161H60.412H60.944C61.136 35.8161 61.344 35.8441 61.552 35.8721C62.492 36.0081 63.476 36.4441 63.732 36.8321C63.988 37.2201 63.932 38.0321 63.808 38.7081C63.7811 38.8658 63.741 39.021 63.688 39.1721C63.6868 39.184 63.6868 39.1961 63.688 39.2081C63.688 39.2081 63.688 39.2361 63.688 39.2521V39.2841L63.664 39.3401L63.616 39.4521C63.616 39.4841 63.584 39.5201 63.564 39.5521C63.5647 39.5627 63.5647 39.5734 63.564 39.5841L63.524 39.6521L63.488 39.7081C63.2746 40.0225 62.979 40.2723 62.6334 40.4303C62.2878 40.5883 61.9054 40.6484 61.528 40.6041C61.1864 40.5967 60.8506 40.5148 60.544 40.3641C59.608 39.8921 59.368 38.8401 59.26 38.3641C59.06 37.6481 58.876 36.4201 59.156 36.1521V36.1561Z" fill="#263238"/>
<path d="M65.5041 37.384L65.3641 42.528L62.4961 41.696L65.1721 37.34C65.2847 37.3293 65.3982 37.3443 65.5041 37.384Z" fill="#F28F8F"/>
<path d="M105.608 38.036C113.793 38.036 120.428 32.2247 120.428 25.056C120.428 17.8874 113.793 12.076 105.608 12.076C97.4232 12.076 90.7881 17.8874 90.7881 25.056C90.7881 32.2247 97.4232 38.036 105.608 38.036Z" fill="#F59566"/>
<path d="M93.78 32.5641C93.696 34.3041 92.224 37.4161 89.564 38.5641C89.5285 38.5792 89.4986 38.6051 89.4786 38.6381C89.4586 38.6712 89.4495 38.7097 89.4526 38.7482C89.4557 38.7867 89.4709 38.8232 89.4959 38.8526C89.5209 38.8821 89.5545 38.9029 89.592 38.9121C91.1126 39.2491 92.6985 39.1349 94.1551 38.5835C95.6118 38.0321 96.8758 37.0675 97.792 35.8081L93.78 32.5641Z" fill="#F59566"/>
<path d="M95.5601 24.028C95.5935 23.4592 95.729 22.901 95.9601 22.38C96.1779 21.8704 96.5025 21.4134 96.9121 21.04C97.3448 20.6441 97.8501 20.3358 98.4001 20.132C99.7191 19.684 101.149 19.684 102.468 20.132C103.023 20.3348 103.534 20.6432 103.972 21.04C104.38 21.4211 104.702 21.8847 104.916 22.4C105.147 22.921 105.283 23.4792 105.316 24.048C105.336 24.496 105.344 24.964 105.344 25.452C105.344 25.94 105.344 26.4 105.316 26.824C105.283 27.3929 105.147 27.9511 104.916 28.472C104.696 28.9827 104.372 29.4418 103.964 29.82C103.529 30.2207 103.017 30.5296 102.46 30.728C101.139 31.1653 99.7128 31.1653 98.3921 30.728C97.837 30.5299 97.3281 30.221 96.8961 29.82C96.4872 29.443 96.1627 28.9835 95.9441 28.472C95.713 27.9511 95.5775 27.3929 95.5441 26.824C95.5241 26.4 95.5121 25.94 95.5121 25.452C95.5121 24.964 95.5401 24.476 95.5601 24.028ZM102.4 26.728C102.4 26.54 102.42 26.328 102.432 26.104C102.444 25.88 102.432 25.64 102.432 25.4C102.432 25.16 102.432 24.928 102.432 24.704C102.432 24.48 102.408 24.304 102.4 24.104C102.383 23.8583 102.328 23.6168 102.236 23.388C102.15 23.1743 102.022 22.9799 101.86 22.816C101.689 22.6485 101.485 22.5189 101.26 22.436C100.714 22.2495 100.122 22.2495 99.5761 22.436C99.3508 22.5198 99.1451 22.6492 98.9721 22.816C98.8112 22.98 98.6847 23.1745 98.6001 23.388C98.5086 23.6168 98.4533 23.8583 98.4361 24.104C98.4114 24.3031 98.3981 24.5035 98.3961 24.704C98.3961 24.928 98.3961 25.16 98.3961 25.4C98.3961 25.64 98.3961 25.872 98.3961 26.104C98.3982 26.3126 98.4115 26.5209 98.4361 26.728C98.4603 27.2089 98.6496 27.6666 98.9721 28.024C99.1638 28.2054 99.3913 28.3446 99.6399 28.4327C99.8886 28.5209 100.153 28.5561 100.416 28.536C100.678 28.557 100.941 28.5222 101.189 28.4339C101.436 28.3457 101.662 28.206 101.852 28.024C102.172 27.6637 102.364 27.2084 102.4 26.728Z" fill="#FAFAFA"/>
<path d="M116.4 30.364C116.433 30.4149 116.449 30.4754 116.444 30.536C116.445 30.5807 116.436 30.6251 116.419 30.6663C116.402 30.7076 116.376 30.7449 116.344 30.776C116.313 30.8087 116.276 30.8348 116.235 30.8526C116.193 30.8705 116.149 30.8798 116.104 30.88H113.6C113.473 30.8847 113.348 30.8512 113.24 30.784C113.136 30.7081 113.042 30.6194 112.96 30.52L110 26.8V30.452C109.998 30.5599 109.956 30.6632 109.882 30.7416C109.808 30.8201 109.708 30.868 109.6 30.876H107.552C107.496 30.8764 107.442 30.8652 107.391 30.8432C107.34 30.8211 107.294 30.7887 107.256 30.748C107.216 30.7099 107.184 30.6639 107.163 30.613C107.142 30.5621 107.131 30.5072 107.132 30.452V20.376C107.131 20.3208 107.142 20.266 107.163 20.215C107.184 20.1641 107.216 20.1181 107.256 20.08C107.294 20.0393 107.34 20.0069 107.391 19.9849C107.442 19.9628 107.496 19.9516 107.552 19.952H109.6C109.708 19.96 109.808 20.0079 109.882 20.0864C109.956 20.1648 109.998 20.2682 110 20.376V23.668L112.748 20.296C112.811 20.2207 112.878 20.1486 112.948 20.08C113.067 19.9833 113.219 19.9374 113.372 19.952H115.804C115.85 19.9517 115.895 19.9607 115.937 19.9786C115.979 19.9965 116.017 20.0228 116.048 20.056C116.08 20.0871 116.106 20.1244 116.123 20.1657C116.14 20.207 116.149 20.2513 116.148 20.296C116.152 20.3572 116.135 20.4179 116.1 20.468L112.26 25.2L116.4 30.364Z" fill="#FAFAFA"/>
<path d="M143.848 37.328L141.604 38.004L139.984 32.592L142.22 31.92L143.848 37.328Z" fill="#E0E0E0"/>
<path d="M150.852 32.524C150.871 32.7435 150.819 32.9633 150.705 33.1517C150.591 33.34 150.419 33.4872 150.216 33.572C150.362 33.7374 150.47 33.9326 150.532 34.144C150.66 34.544 150.32 35.124 149.644 35.344L144.512 36.888L143.004 31.86C143.004 31.86 143.872 29.64 143.916 29.304C143.96 28.968 143.448 27.736 143.376 27.504C143.304 27.272 144.136 26.968 144.792 27.232C144.945 27.2998 145.081 27.3994 145.192 27.524C145.428 27.7753 145.626 28.0596 145.78 28.368C145.998 28.8076 146.105 29.2936 146.092 29.784L149.2 28.836C149.415 28.7584 149.649 28.7584 149.864 28.836C150.004 28.8915 150.128 28.9823 150.223 29.0997C150.318 29.2171 150.381 29.357 150.406 29.5059C150.431 29.6549 150.417 29.8077 150.366 29.9496C150.314 30.0916 150.227 30.2178 150.112 30.316C150.297 30.3026 150.481 30.3517 150.635 30.4554C150.789 30.5591 150.903 30.7115 150.96 30.888C151.007 31.0933 150.982 31.3086 150.889 31.4974C150.796 31.6863 150.64 31.837 150.448 31.924C150.655 32.064 150.8 32.2791 150.852 32.524Z" fill="#E0E0E0"/>
<path d="M176 93.4439L173.124 92.7519L174.8 85.8159L177.676 86.5079L176 93.4439Z" fill="#E0E0E0"/>
<path d="M186.708 92.664C186.589 92.9152 186.393 93.1222 186.148 93.2551C185.904 93.3881 185.624 93.4402 185.348 93.404C185.4 93.677 185.393 93.9578 185.328 94.228C185.2 94.768 184.468 95.164 183.604 94.952L177.02 93.352L178.572 86.908C178.572 86.908 180.936 85.04 181.196 84.7C181.456 84.36 181.68 82.7 181.752 82.392C181.824 82.084 182.924 82.292 183.472 83C183.605 83.172 183.698 83.3715 183.744 83.584C183.841 84.0073 183.876 84.4425 183.848 84.876C183.805 85.4952 183.613 86.0948 183.288 86.624L187.264 87.584C187.546 87.6438 187.798 87.801 187.976 88.028C188.075 88.1575 188.144 88.3066 188.181 88.4652C188.218 88.6238 188.22 88.7884 188.188 88.948C188.135 89.1583 188.024 89.3495 187.867 89.5C187.711 89.6505 187.516 89.7544 187.304 89.8C187.514 89.903 187.684 90.0738 187.786 90.285C187.887 90.4961 187.915 90.7353 187.864 90.964C187.783 91.2168 187.618 91.4342 187.396 91.5798C187.173 91.7254 186.908 91.7904 186.644 91.764C186.782 92.0442 186.805 92.3671 186.708 92.664Z" fill="#E0E0E0"/>
<path d="M30.7279 89.296L33.8679 90.24L36.1399 82.664L33.0039 81.72L30.7279 89.296Z" fill="#E0E0E0"/>
<path d="M20.916 82.564C20.8898 82.8716 20.9621 83.1797 21.1224 83.4435C21.2828 83.7074 21.5228 83.9135 21.808 84.032C21.6064 84.2645 21.4564 84.5372 21.368 84.832C21.188 85.42 21.668 86.208 22.608 86.488L29.808 88.652L31.912 81.6C31.912 81.6 30.692 78.488 30.632 78C30.572 77.512 31.292 75.808 31.388 75.48C31.468 75.216 30.324 74.732 29.388 75.104C29.1654 75.1912 28.9657 75.328 28.804 75.504C28.4716 75.8611 28.1939 76.2655 27.98 76.704C27.6735 77.3252 27.5225 78.0115 27.54 78.704L23.22 77.4C22.9153 77.2998 22.585 77.3111 22.288 77.432C22.0911 77.5095 21.9177 77.6366 21.7846 77.8011C21.6515 77.9656 21.5634 78.1618 21.5287 78.3705C21.4941 78.5792 21.5141 78.7933 21.5869 78.992C21.6597 79.1906 21.7827 79.367 21.944 79.504C21.6829 79.4816 21.4219 79.5486 21.2039 79.6939C20.9859 79.8393 20.8237 80.0544 20.744 80.304C20.6775 80.592 20.7124 80.8941 20.8428 81.1594C20.9733 81.4247 21.1913 81.6368 21.46 81.76C21.1859 81.9519 20.9922 82.2382 20.916 82.564Z" fill="#E0E0E0"/>
</svg>
