<svg width="200" height="200" viewBox="0 0 200 200" fill="none" xmlns="http://www.w3.org/2000/svg">
<path d="M101.625 193.977C151.081 193.977 191.174 169.442 191.174 139.177C191.174 108.911 151.081 84.3763 101.625 84.3763C52.1681 84.3763 12.0756 108.911 12.0756 139.177C12.0756 169.442 52.1681 193.977 101.625 193.977Z" fill="#F5F5F5"/>
<path d="M146.937 161.917C146.594 161.917 146.082 161.858 145.599 161.58L129.768 152.439C129.201 152.112 128.862 151.564 128.862 150.974C128.862 150.384 129.201 149.836 129.768 149.509L155.983 134.374C156.466 134.095 156.977 134.036 157.322 134.036C157.665 134.036 158.177 134.095 158.66 134.374L174.49 143.514C175.058 143.841 175.396 144.388 175.396 144.979C175.396 145.57 175.058 146.117 174.49 146.444L148.275 161.58C147.792 161.858 147.281 161.917 146.937 161.917Z" fill="#E0E0E0"/>
<path d="M113.664 181.956C111.604 181.956 109.608 181.729 107.734 181.282C105.806 180.824 104.043 180.173 102.498 179.349L102.459 179.327C102.142 179.149 101.732 178.903 101.206 178.575C100.711 178.267 100.204 177.941 99.682 177.599C99.1592 177.257 98.6688 176.928 98.2104 176.613C97.7332 176.287 97.366 176.023 97.094 175.812C95.7396 174.753 94.7176 173.539 94.0492 172.201C93.3144 170.727 93.0984 169.171 93.4064 167.576C93.6984 166.063 94.5076 164.556 95.812 163.097C97.0452 161.717 98.7716 160.449 101.09 159.22C103.658 157.859 106.147 156.859 108.486 156.247C110.835 155.633 113.093 155.313 115.197 155.296L115.396 155.295C117.45 155.295 119.409 155.551 121.219 156.053C123.052 156.564 124.784 157.255 126.366 158.108C126.996 158.457 127.672 158.869 128.397 159.344C129.131 159.825 129.746 160.257 130.274 160.663C131.258 161.39 131.95 162.202 132.334 163.075C132.704 163.927 132.823 164.782 132.691 165.624C132.75 165.62 132.808 165.617 132.868 165.616L132.978 165.615C133.724 165.615 134.414 165.835 134.976 166.253C135.738 166.792 136.121 167.685 135.98 168.606C135.881 169.242 135.717 169.929 135.491 170.648C135.221 171.506 134.732 172.385 134.036 173.264C133.386 174.087 132.518 174.922 131.384 175.819C130.288 176.683 128.833 177.597 127.06 178.537C124.841 179.713 122.578 180.585 120.332 181.129C118.098 181.668 115.901 181.946 113.8 181.955L113.664 181.956ZM112.261 168.399C112.332 168.451 112.413 168.507 112.504 168.566C113.212 169.031 113.913 169.304 114.589 169.38C114.715 169.394 114.838 169.401 114.956 169.401C115.259 169.401 115.542 169.355 115.814 169.26C115.748 169.214 115.676 169.164 115.596 169.112C114.881 168.643 114.171 168.362 113.487 168.276C113.363 168.261 113.24 168.253 113.122 168.253C112.825 168.253 112.541 168.301 112.261 168.399Z" fill="#E0E0E0"/>
<path d="M66.7324 174.662L15.2416 145.002C14.1556 144.374 14.1556 143.358 15.2416 142.731L119.74 82.4221C120.826 81.7949 122.588 81.7949 123.674 82.4221L175.165 112.082C176.251 112.71 176.251 113.726 175.165 114.353L70.6656 174.662C69.5796 175.289 67.8184 175.289 66.7324 174.662Z" fill="#E0E0E0"/>
<path d="M63.2816 23.7441L60.6608 25.2573C60.6736 25.1401 60.6828 25.0241 60.6828 24.9105V24.1513C60.6828 22.8001 59.7344 22.2525 58.564 22.9281C58.09 23.2017 57.654 23.6353 57.3012 24.1425C57.1096 22.4437 55.7768 21.8109 54.1576 22.7453C52.4072 23.7561 50.988 26.2141 50.988 28.2353V29.3713C50.988 29.8949 51.0848 30.3357 51.2564 30.6873L49.0796 31.9441C48.4304 32.3189 47.9044 33.2301 47.9044 33.9797C47.9044 34.7293 48.4304 35.0329 49.0796 34.6581L63.2816 26.4589C63.9308 26.0841 64.4568 25.1729 64.4568 24.4233C64.4568 23.6733 63.9308 23.3693 63.2816 23.7441Z" fill="#EBEBEB"/>
<path d="M45.9576 16.7828L44.512 17.3388V14.154C44.512 11.6292 42.4984 11.024 40.312 12.2864C38.1256 13.5488 36.3532 16.6188 36.3532 19.1432V19.6056C35.8572 19.4076 35.2164 19.4844 34.516 19.8888C32.9424 20.7972 31.6672 23.0064 31.6672 24.8232V25.0332L29.6516 26.1972C28.6156 26.7952 27.7756 28.25 27.7756 29.4464C27.7756 30.6428 28.6156 31.1276 29.6516 30.5296L45.958 21.1152C46.994 20.5168 47.834 19.062 47.834 17.8656C47.8336 16.6696 46.9936 16.1844 45.9576 16.7828Z" fill="#EBEBEB"/>
<path d="M24.3736 133.422L27.096 131.848C27.096 131.848 28.7164 125.116 28.0708 119.057C27.1628 110.539 21.556 107.334 19.424 108.069C17.292 108.803 16.6744 111.282 20.2024 116.355C22.2836 119.348 24.8404 125.583 24.3736 133.422Z" fill="#F59566"/>
<g opacity="0.15">
<path d="M24.3736 133.422L27.096 131.848C27.096 131.848 28.7164 125.116 28.0708 119.057C27.1628 110.539 21.556 107.334 19.424 108.069C17.292 108.803 16.6744 111.282 20.2024 116.355C22.2836 119.348 24.8404 125.583 24.3736 133.422Z" fill="black"/>
</g>
<path d="M25.5016 130.114C25.4928 130.114 25.4844 130.112 25.4756 130.111C25.3732 130.091 25.3056 129.992 25.3252 129.89C26.8176 122.034 24.0732 113.205 20.6744 109.532C20.6036 109.455 20.608 109.336 20.6848 109.265C20.7616 109.195 20.8808 109.199 20.9516 109.275C24.412 113.016 27.2104 121.988 25.696 129.96C25.6788 130.054 25.594 130.118 25.5016 130.114Z" fill="white"/>
<path d="M16.8512 138.733C16.4212 138.952 15.2772 137.973 14.9584 137.735C14.4128 137.328 13.982 136.768 13.7084 136.146C13.39 135.421 13.3392 134.66 13.4896 133.884C13.5676 133.481 13.7008 133.092 13.834 132.704C13.9644 132.323 14.0952 131.943 14.2256 131.562C14.3544 131.186 14.4848 130.798 14.4544 130.402C14.3928 129.604 13.7176 129.013 13.102 128.502C12.4216 127.937 11.7204 127.201 11.7724 126.247C11.8128 125.511 12.2284 124.846 12.7136 124.292C13.1988 123.737 13.766 123.254 14.2092 122.664C14.528 122.24 14.7856 121.736 14.764 121.206C14.7504 120.876 14.63 120.561 14.488 120.264C14.1824 119.625 13.7664 119.034 13.568 118.355C13.3692 117.676 13.444 116.847 13.9892 116.396C14.4364 116.026 15.0748 116.003 15.6516 116.07C16.1852 116.133 16.696 116.401 17.1516 116.685C18.624 117.604 19.398 119.441 20.9724 120.17C21.5796 120.452 22.2564 120.541 22.894 120.744C23.5316 120.948 24.174 121.311 24.4432 121.924C24.974 123.132 23.8056 124.529 24.1572 125.801C24.4684 126.926 25.5228 127.404 26.0768 128.432C26.3188 128.882 26.3544 129.39 26.2864 129.896C26.1708 130.753 26.0132 131.378 25.552 132.314C25.1708 133.088 24.0976 134.55 24.0976 134.55C24.0976 134.55 16.9172 138.7 16.8512 138.733Z" fill="#F59566"/>
<path d="M21.0184 136.561C21.016 136.561 21.0132 136.561 21.0132 136.561C20.9064 136.551 20.8304 136.459 20.8396 136.355C21.5288 128.882 18.4176 120.438 15.9728 117.906C15.9004 117.832 15.9024 117.712 15.9776 117.639C16.0528 117.567 16.172 117.569 16.2448 117.644C18.7384 120.226 21.9148 128.812 21.216 136.39C21.2068 136.491 21.1192 136.566 21.0184 136.561Z" fill="white"/>
<path d="M20.2764 127.347C20.258 127.346 20.2392 127.343 20.2212 127.336C17.8528 126.471 14.8608 126.188 14.8312 126.186C14.7272 126.176 14.6508 126.084 14.6604 125.98C14.67 125.877 14.7532 125.798 14.866 125.81C14.8964 125.813 17.936 126.099 20.3512 126.982C20.4492 127.017 20.4996 127.126 20.4636 127.224C20.434 127.303 20.3568 127.352 20.2764 127.347Z" fill="white"/>
<path d="M18.6461 143.108L66.5196 170.743C68.0732 171.64 69.904 171.659 71.5144 170.836L167.896 115.187C169.415 114.31 170.646 112.349 170.646 110.807C170.647 109.265 169.416 107.304 167.898 106.428L120.201 78.8904C118.689 78.0172 116.215 78.0172 114.702 78.8904L18.6461 134.35C17.1277 135.226 15.8969 137.187 15.8969 138.729C15.8969 140.271 17.1277 142.232 18.6461 143.108Z" fill="#37474F"/>
<path d="M66.5196 170.743L18.6461 143.108C17.1277 142.231 15.8969 140.271 15.8969 138.729C15.8969 137.187 17.1277 135.226 18.6461 134.35L69.1248 105.205V171.429C68.2284 171.437 67.3356 171.214 66.5196 170.743Z" fill="#263238"/>
<path d="M67.6585 165.819C68.9917 166.588 71.1737 166.588 72.5069 165.819L167.909 110.739C169.96 109.555 169.96 107.617 167.909 106.432L120.205 78.8904C118.693 78.0172 116.219 78.0172 114.706 78.8904L18.6505 134.35C17.1385 135.223 17.1385 136.651 18.6505 137.524L67.6585 165.819Z" fill="#455A64"/>
<path d="M72.2916 160.273C73.7344 161.106 76.074 161.106 77.5168 160.273L159.608 112.877C161.05 112.044 161.05 110.694 159.608 109.86L114.732 83.954C113.295 83.1244 110.943 83.1244 109.506 83.954L27.4152 131.35C25.9784 132.18 25.9784 133.537 27.4152 134.367L72.2916 160.273Z" fill="#37474F"/>
<path d="M112.278 83.3408C113.171 83.3628 114.054 83.5628 114.732 83.9544L159.608 109.861C161.05 110.694 161.05 112.045 159.608 112.878L150.712 118.014L112.278 93.4704V83.3408Z" fill="#263238"/>
<path d="M109.475 85.9155C110.912 85.0859 113.264 85.0859 114.7 85.9155L159.577 111.822C159.862 111.986 160.087 112.172 160.259 112.369C160.091 112.552 159.874 112.724 159.608 112.877L77.5169 160.273C76.0741 161.106 73.7345 161.106 72.2917 160.273L27.4153 134.367C27.1337 134.204 26.9089 134.021 26.7377 133.826C26.9049 133.641 27.1161 133.466 27.3845 133.312L109.475 85.9155Z" fill="#FAFAFA"/>
<path d="M143.204 97.7436L135.251 93.1516C134.777 92.8776 134.753 92.4472 135.198 92.1904C135.643 91.9332 136.389 91.9472 136.863 92.2212L144.816 96.8132C145.291 97.0872 145.315 97.5176 144.869 97.7744C144.424 98.0312 143.679 98.0176 143.204 97.7436Z" fill="#263238"/>
<path d="M129.547 89.8703C129.102 89.6131 129.102 89.1967 129.547 88.9395C129.992 88.6827 130.714 88.6827 131.159 88.9395C131.604 89.1967 131.604 89.6131 131.159 89.8703C130.714 90.1271 129.992 90.1271 129.547 89.8703Z" fill="#263238"/>
<path d="M126.323 88.0063C125.878 87.7495 125.878 87.3327 126.323 87.0755C126.768 86.8187 127.49 86.8187 127.935 87.0755C128.38 87.3327 128.38 87.7491 127.935 88.0063C127.49 88.2631 126.768 88.2631 126.323 88.0063Z" fill="#263238"/>
<path d="M152.116 102.898C151.671 102.642 151.671 102.225 152.116 101.968C152.561 101.71 153.283 101.71 153.728 101.968C154.173 102.225 154.173 102.641 153.728 102.898C153.283 103.155 152.561 103.155 152.116 102.898Z" fill="#263238"/>
<path d="M148.892 101.034C148.447 100.777 148.447 100.361 148.892 100.104C149.337 99.8463 150.059 99.8463 150.504 100.104C150.949 100.361 150.949 100.777 150.504 101.034C150.059 101.292 149.337 101.292 148.892 101.034Z" fill="#263238"/>
<path d="M70.2865 147.035V147.209C70.2865 147.486 70.4813 147.824 70.7217 147.963L80.0601 153.354C80.3005 153.493 80.6905 153.493 80.9305 153.354L96.3941 144.426C96.6345 144.288 96.8293 143.95 96.8293 143.672V143.499C96.8293 143.221 96.6345 142.884 96.3941 142.745L87.0557 137.353C86.8153 137.214 86.4253 137.214 86.1853 137.353L70.7217 146.281C70.4813 146.42 70.2865 146.758 70.2865 147.035Z" fill="#F59566"/>
<path d="M70.2865 147.035V147.209C70.2865 147.486 70.4813 147.824 70.7217 147.963L80.0601 153.354C80.3005 153.493 80.6905 153.493 80.9305 153.354L96.3941 144.426C96.6345 144.288 96.8293 143.95 96.8293 143.672V143.499C96.8293 143.221 96.6345 142.884 96.3941 142.745L87.0557 137.353C86.8153 137.214 86.4253 137.214 86.1853 137.353L70.7217 146.281C70.4813 146.42 70.2865 146.758 70.2865 147.035Z" fill="#F59566"/>
<path opacity="0.3" d="M96.3945 142.745L87.0561 137.353C86.8157 137.214 86.4257 137.214 86.1853 137.353L80.4953 140.638V153.458H80.4949C80.6525 153.458 80.8101 153.424 80.9305 153.354L96.3941 144.426C96.6345 144.288 96.8293 143.95 96.8293 143.672V143.499C96.8297 143.221 96.6349 142.884 96.3945 142.745Z" fill="white"/>
<path opacity="0.15" d="M96.3945 142.745L87.0561 137.353C86.8157 137.214 86.4257 137.214 86.1853 137.353L80.4953 140.638V153.458H80.4949C80.6525 153.458 80.8101 153.424 80.9305 153.354L96.3941 144.426C96.6345 144.288 96.8293 143.95 96.8293 143.672V143.499C96.8297 143.221 96.6349 142.884 96.3945 142.745Z" fill="black"/>
<path opacity="0.3" d="M80.4957 140.638L70.7221 146.281C70.4817 146.42 70.2869 146.758 70.2869 147.035V147.209C70.2869 147.486 70.4817 147.824 70.7221 147.963L80.0605 153.354C80.1805 153.424 80.3381 153.458 80.4957 153.458H80.4961V140.638H80.4957Z" fill="white"/>
<path opacity="0.2" d="M80.4957 140.638L70.7221 146.281C70.4817 146.42 70.2869 146.758 70.2869 147.035V147.209C70.2869 147.486 70.4817 147.824 70.7221 147.963L80.0605 153.354C80.1805 153.424 80.3381 153.458 80.4957 153.458H80.4961V140.638H80.4957Z" fill="black"/>
<path d="M78.5649 151.312L70.7217 146.784C70.4813 146.645 70.4813 146.42 70.7217 146.281L86.1853 137.353C86.4257 137.214 86.8157 137.214 87.0557 137.353L96.3941 142.744C96.6345 142.883 96.6345 143.108 96.3941 143.247L93.8289 144.728L92.9309 145.247L80.9305 152.175C80.6901 152.314 80.3001 152.314 80.0597 152.175L79.2989 151.736L78.5649 151.312Z" fill="#F59566"/>
<path opacity="0.3" d="M78.5649 151.312L70.7217 146.784C70.4813 146.645 70.4813 146.42 70.7217 146.281L86.1853 137.353C86.4257 137.214 86.8157 137.214 87.0557 137.353L96.3941 142.744C96.6345 142.883 96.6345 143.108 96.3941 143.247L93.8289 144.728L92.9309 145.247L80.9305 152.175C80.6901 152.314 80.3001 152.314 80.0597 152.175L79.2989 151.736L78.5649 151.312Z" fill="white"/>
<path opacity="0.15" d="M85.6849 143.79L96.3945 142.745L85.7793 143.346L87.0561 137.354C86.9257 137.278 86.7525 137.248 86.5817 137.254L84.5789 145.354L70.5449 146.512C70.5349 146.61 70.5921 146.71 70.7217 146.784L82.0553 146.126L80.4953 152.28L82.4901 146.101L84.4257 145.989C84.6693 145.975 84.8917 145.876 85.0645 145.722H85.0657L85.0661 145.72C85.2273 145.576 85.3453 145.382 85.3929 145.159L85.6849 143.79Z" fill="black"/>
<path opacity="0.3" d="M73.8937 146.235L84.5793 145.354L84.9617 143.823L85.1729 142.97L86.5837 137.254C86.4393 137.259 86.2965 137.29 86.1857 137.354L78.4537 141.818L70.7217 146.282C70.6109 146.346 70.5537 146.428 70.5449 146.512L72.6881 146.335L73.8937 146.235Z" fill="white"/>
<path d="M84.8525 136.075C85.8293 135.511 87.4125 135.511 88.3893 136.075C89.3657 136.639 89.3657 137.553 88.3893 138.117C87.4129 138.681 85.8293 138.681 84.8525 138.117C83.8761 137.553 83.8761 136.638 84.8525 136.075Z" fill="#F28F8F"/>
<path d="M85.3857 137.432C85.3545 137.429 85.3301 137.421 85.3121 137.406C85.2949 137.392 85.2881 137.375 85.2921 137.357L85.4385 136.714C85.4425 136.699 85.4477 136.68 85.4549 136.658C85.4617 136.636 85.4793 136.616 85.5085 136.599L85.8665 136.392C85.8881 136.38 85.9145 136.374 85.9457 136.374C85.9773 136.374 86.0033 136.38 86.0249 136.392L87.9185 137.486C87.9397 137.498 87.9505 137.514 87.9509 137.532C87.9505 137.55 87.9401 137.565 87.9185 137.577L87.5345 137.799C87.5129 137.812 87.4865 137.818 87.4553 137.818C87.4237 137.818 87.3973 137.811 87.3761 137.799L86.0949 137.059L86.0101 137.413C86.0061 137.431 85.9917 137.445 85.9677 137.456C85.9433 137.467 85.9153 137.471 85.8841 137.469L85.3857 137.432Z" fill="#FAFAFA"/>
<path d="M102.813 140.222L92.3065 134.155C92.0673 134.017 92.0673 133.793 92.3065 133.655L130.434 111.641C130.674 111.503 131.061 111.503 131.3 111.641L141.809 117.708C142.048 117.846 142.048 118.07 141.809 118.208L103.679 140.222C103.44 140.36 103.052 140.36 102.813 140.222Z" fill="#F59566"/>
<path d="M100.794 133.367C100.758 133.388 100.721 133.398 100.684 133.398C100.647 133.398 100.618 133.397 100.599 133.396L98.4149 133.15L99.7077 133.896C99.7305 133.909 99.7421 133.926 99.7421 133.945C99.7417 133.964 99.7305 133.981 99.7077 133.994L99.4533 134.14C99.4301 134.154 99.4017 134.16 99.3685 134.161C99.3349 134.16 99.3069 134.154 99.2837 134.14L97.2561 132.97C97.2329 132.956 97.2217 132.94 97.2213 132.921C97.2217 132.902 97.2329 132.885 97.2561 132.872L97.4757 132.745C97.5113 132.725 97.5481 132.714 97.5853 132.714C97.6233 132.714 97.6513 132.715 97.6701 132.716L99.8553 132.963L98.5617 132.216C98.5389 132.203 98.5277 132.187 98.5273 132.167C98.5277 132.148 98.5389 132.132 98.5617 132.118L98.8165 131.972C98.8393 131.958 98.8677 131.952 98.9009 131.952C98.9349 131.952 98.9625 131.958 98.9861 131.972L101.013 133.142C101.037 133.156 101.048 133.172 101.048 133.191C101.048 133.211 101.037 133.227 101.013 133.24L100.794 133.367Z" fill="#FAFAFA"/>
<path d="M100.662 132.501C100.545 132.433 100.452 132.359 100.384 132.279C100.316 132.198 100.277 132.117 100.268 132.034C100.259 131.951 100.279 131.87 100.331 131.79C100.382 131.709 100.466 131.635 100.583 131.567C100.701 131.5 100.828 131.451 100.966 131.42C101.105 131.39 101.243 131.377 101.383 131.38C101.521 131.383 101.658 131.402 101.791 131.437C101.926 131.472 102.046 131.52 102.153 131.582L102.294 131.663C102.317 131.676 102.329 131.693 102.329 131.712C102.329 131.732 102.317 131.748 102.294 131.761L101.246 132.366C101.294 132.394 101.346 132.413 101.403 132.423C101.459 132.433 101.517 132.435 101.576 132.43C101.634 132.425 101.692 132.414 101.749 132.396C101.805 132.378 101.856 132.355 101.902 132.329C101.969 132.29 102.017 132.255 102.045 132.223C102.073 132.191 102.091 132.161 102.097 132.133C102.103 132.11 102.111 132.092 102.119 132.08C102.127 132.068 102.144 132.055 102.169 132.04L102.421 131.895C102.444 131.882 102.472 131.875 102.507 131.874C102.541 131.874 102.569 131.881 102.59 131.895C102.617 131.913 102.639 131.944 102.654 131.988C102.67 132.032 102.669 132.085 102.653 132.146C102.636 132.206 102.599 132.271 102.541 132.34C102.484 132.409 102.397 132.478 102.279 132.546C102.162 132.614 102.035 132.663 101.9 132.694C101.763 132.726 101.624 132.739 101.482 132.734C101.339 132.73 101.199 132.708 101.06 132.668C100.919 132.629 100.787 132.574 100.662 132.501ZM100.96 131.785C100.9 131.82 100.856 131.855 100.831 131.89C100.806 131.925 100.793 131.959 100.792 131.992C100.791 132.026 100.8 132.057 100.819 132.086C100.837 132.115 100.861 132.14 100.887 132.16L101.597 131.75C101.561 131.735 101.521 131.72 101.475 131.707C101.429 131.694 101.378 131.686 101.324 131.685C101.269 131.684 101.212 131.691 101.151 131.705C101.091 131.72 101.027 131.746 100.96 131.785Z" fill="#FAFAFA"/>
<path d="M104.249 130.611L103.634 129.929C103.624 129.916 103.616 129.901 103.61 129.885C103.605 129.869 103.617 129.852 103.646 129.835L103.885 129.697C103.908 129.684 103.936 129.677 103.97 129.677C104.004 129.677 104.032 129.684 104.055 129.697C104.063 129.702 104.07 129.707 104.073 129.712L105.047 130.821C105.06 130.835 105.068 130.851 105.072 130.868C105.076 130.885 105.064 130.901 105.034 130.919L104.796 131.056C104.766 131.073 104.737 131.08 104.709 131.077C104.681 131.074 104.654 131.069 104.626 131.064L103.484 130.755L104.017 131.415C104.028 131.431 104.036 131.447 104.041 131.463C104.046 131.479 104.034 131.496 104.005 131.513L103.766 131.651C103.737 131.667 103.708 131.675 103.678 131.673C103.649 131.67 103.622 131.665 103.597 131.658L101.675 131.096C101.667 131.094 101.659 131.09 101.651 131.086C101.628 131.073 101.616 131.056 101.616 131.037C101.616 131.017 101.627 131.001 101.65 130.988L101.889 130.85C101.918 130.833 101.947 130.826 101.976 130.829C102.004 130.832 102.03 130.836 102.053 130.843L103.232 131.198L102.636 130.506C102.624 130.494 102.617 130.479 102.616 130.459C102.615 130.441 102.625 130.425 102.648 130.411L102.887 130.274C102.91 130.261 102.938 130.254 102.971 130.255C103.003 130.255 103.029 130.259 103.051 130.267L104.249 130.611Z" fill="#FAFAFA"/>
<path d="M105.668 129.61C105.551 129.543 105.458 129.469 105.39 129.388C105.322 129.308 105.283 129.226 105.274 129.144C105.265 129.061 105.286 128.98 105.337 128.899C105.388 128.819 105.472 128.745 105.59 128.677C105.707 128.609 105.834 128.56 105.972 128.53C106.111 128.5 106.249 128.486 106.389 128.489C106.528 128.492 106.664 128.512 106.798 128.546C106.932 128.581 107.052 128.63 107.159 128.691L107.3 128.773C107.324 128.786 107.335 128.802 107.335 128.822C107.335 128.841 107.324 128.857 107.3 128.87L106.252 129.476C106.3 129.504 106.353 129.522 106.409 129.532C106.466 129.542 106.523 129.544 106.582 129.539C106.641 129.534 106.698 129.523 106.755 129.505C106.811 129.486 106.863 129.464 106.908 129.438C106.976 129.399 107.023 129.364 107.051 129.332C107.079 129.3 107.097 129.27 107.103 129.242C107.109 129.218 107.116 129.201 107.125 129.189C107.134 129.177 107.15 129.164 107.175 129.149L107.427 129.004C107.45 128.991 107.478 128.984 107.513 128.983C107.547 128.983 107.575 128.99 107.596 129.004C107.623 129.022 107.645 129.054 107.66 129.098C107.676 129.141 107.675 129.194 107.659 129.254C107.642 129.314 107.605 129.38 107.548 129.449C107.49 129.518 107.403 129.587 107.286 129.655C107.168 129.722 107.042 129.772 106.906 129.803C106.77 129.835 106.63 129.848 106.488 129.843C106.346 129.838 106.205 129.817 106.066 129.777C105.926 129.738 105.794 129.683 105.668 129.61ZM105.966 128.895C105.906 128.93 105.862 128.965 105.838 129C105.813 129.035 105.799 129.069 105.798 129.102C105.797 129.136 105.806 129.166 105.825 129.195C105.844 129.224 105.867 129.249 105.894 129.27L106.603 128.86C106.568 128.845 106.527 128.83 106.481 128.817C106.434 128.804 106.384 128.796 106.33 128.795C106.275 128.794 106.218 128.801 106.157 128.815C106.097 128.829 106.034 128.856 105.966 128.895Z" fill="#FAFAFA"/>
<path d="M107.301 127.907C107.29 127.843 107.305 127.781 107.343 127.721C107.382 127.661 107.439 127.609 107.517 127.564C107.649 127.488 107.781 127.44 107.914 127.42C108.047 127.4 108.177 127.399 108.305 127.417C108.29 127.377 108.286 127.336 108.292 127.294C108.299 127.251 108.313 127.211 108.335 127.171C108.357 127.132 108.386 127.096 108.422 127.061C108.459 127.026 108.5 126.996 108.547 126.97C108.666 126.901 108.785 126.855 108.905 126.832C109.024 126.809 109.141 126.803 109.258 126.813C109.374 126.823 109.487 126.848 109.595 126.888C109.704 126.928 109.808 126.976 109.906 127.032L110.75 127.52C110.773 127.534 110.785 127.55 110.785 127.569C110.785 127.588 110.773 127.605 110.75 127.618L110.511 127.756C110.488 127.769 110.46 127.776 110.427 127.776C110.393 127.776 110.365 127.769 110.342 127.756L109.514 127.278C109.371 127.195 109.245 127.154 109.133 127.152C109.023 127.151 108.918 127.179 108.82 127.236C108.736 127.284 108.692 127.341 108.687 127.407C108.681 127.473 108.745 127.546 108.876 127.627L109.721 128.115C109.744 128.128 109.755 128.144 109.755 128.164C109.755 128.183 109.744 128.2 109.721 128.213L109.482 128.351C109.459 128.364 109.431 128.37 109.397 128.371C109.364 128.37 109.336 128.364 109.313 128.35L108.484 127.872C108.342 127.79 108.215 127.748 108.104 127.747C107.993 127.746 107.889 127.774 107.79 127.83C107.705 127.88 107.66 127.939 107.657 128.007C107.654 128.075 107.722 128.15 107.863 128.231L108.691 128.709C108.714 128.722 108.726 128.739 108.726 128.758C108.726 128.778 108.714 128.794 108.691 128.807L108.453 128.945C108.429 128.958 108.401 128.965 108.368 128.965C108.334 128.965 108.306 128.958 108.283 128.945L106.821 128.101C106.797 128.088 106.786 128.071 106.786 128.052C106.786 128.032 106.797 128.016 106.82 128.003L107.059 127.865C107.082 127.852 107.11 127.845 107.144 127.845C107.177 127.845 107.205 127.852 107.229 127.865L107.301 127.907Z" fill="#FAFAFA"/>
<path d="M110.022 126.618C109.987 126.588 109.959 126.55 109.939 126.503C109.919 126.457 109.915 126.404 109.927 126.347C109.938 126.29 109.97 126.23 110.022 126.167C110.074 126.104 110.154 126.042 110.261 125.98C110.368 125.918 110.478 125.871 110.591 125.838C110.706 125.805 110.821 125.786 110.937 125.782C111.053 125.777 111.169 125.789 111.286 125.818C111.401 125.846 111.513 125.892 111.619 125.953L112.543 126.486C112.566 126.499 112.577 126.515 112.577 126.535C112.577 126.554 112.566 126.57 112.543 126.584L112.304 126.722C112.281 126.735 112.253 126.742 112.219 126.742C112.186 126.742 112.158 126.735 112.135 126.721L112.031 126.662C112.048 126.722 112.036 126.788 111.997 126.861C111.956 126.934 111.873 127.007 111.745 127.08C111.655 127.132 111.562 127.172 111.467 127.199C111.372 127.226 111.278 127.241 111.187 127.244C111.095 127.246 111.006 127.238 110.92 127.218C110.834 127.198 110.755 127.168 110.684 127.127C110.54 127.044 110.478 126.949 110.499 126.842C110.52 126.736 110.602 126.625 110.744 126.509L111.168 126.163C111.082 126.114 110.993 126.095 110.901 126.107C110.809 126.119 110.721 126.149 110.637 126.198C110.585 126.228 110.551 126.256 110.537 126.281C110.522 126.306 110.514 126.334 110.511 126.364C110.51 126.385 110.503 126.402 110.494 126.414C110.485 126.427 110.471 126.438 110.452 126.45L110.16 126.618C110.139 126.63 110.115 126.637 110.088 126.638C110.061 126.639 110.039 126.633 110.022 126.618ZM111.431 126.827C111.503 126.786 111.556 126.743 111.591 126.7C111.627 126.657 111.647 126.614 111.651 126.573C111.655 126.532 111.645 126.494 111.623 126.459C111.599 126.424 111.566 126.394 111.522 126.368L111.491 126.35L111.139 126.64C111.068 126.698 111.028 126.747 111.018 126.784C111.009 126.822 111.028 126.856 111.077 126.883C111.12 126.908 111.175 126.914 111.241 126.9C111.307 126.886 111.371 126.862 111.431 126.827Z" fill="#FAFAFA"/>
<path d="M111.155 124.811C111.178 124.798 111.206 124.792 111.24 124.792C111.273 124.792 111.302 124.798 111.325 124.811L111.569 124.953C111.592 124.966 111.604 124.982 111.604 125.002C111.604 125.021 111.593 125.038 111.57 125.051L111.3 125.207C111.276 125.22 111.248 125.227 111.214 125.227C111.181 125.227 111.153 125.22 111.13 125.207L110.885 125.065C110.862 125.052 110.85 125.036 110.85 125.016C110.85 124.997 110.862 124.981 110.885 124.968L111.155 124.811ZM113.368 126.009C113.391 126.023 113.402 126.039 113.403 126.058C113.402 126.078 113.391 126.094 113.368 126.107L113.129 126.245C113.106 126.258 113.078 126.265 113.045 126.265C113.011 126.265 112.983 126.258 112.96 126.245L111.497 125.401C111.474 125.388 111.463 125.371 111.463 125.352C111.462 125.332 111.474 125.316 111.497 125.303L111.736 125.165C111.759 125.151 111.787 125.145 111.821 125.145C111.854 125.145 111.882 125.152 111.906 125.165L113.368 126.009Z" fill="#FAFAFA"/>
<path d="M114.209 125.523C114.233 125.537 114.244 125.553 114.244 125.573C114.244 125.592 114.233 125.608 114.209 125.621L113.971 125.759C113.947 125.772 113.919 125.779 113.886 125.779C113.853 125.779 113.824 125.773 113.801 125.759L111.742 124.57C111.719 124.557 111.708 124.541 111.708 124.521C111.708 124.502 111.719 124.486 111.742 124.472L111.981 124.335C112.004 124.322 112.032 124.315 112.066 124.315C112.099 124.315 112.127 124.322 112.151 124.335L114.209 125.523Z" fill="#FAFAFA"/>
<path d="M101.758 135.058L132.866 117.097C133.249 116.876 133.809 116.842 134.118 117.02C134.426 117.198 134.366 117.521 133.983 117.742L102.871 135.705C102.488 135.926 101.929 135.96 101.621 135.781C101.314 135.602 101.375 135.278 101.758 135.058Z" fill="#FAFAFA"/>
<path d="M103.942 136.319L135.051 118.358C135.433 118.138 135.993 118.103 136.302 118.281C136.61 118.459 136.55 118.782 136.167 119.003L105.055 136.966C104.672 137.187 104.113 137.221 103.805 137.042C103.498 136.863 103.559 136.54 103.942 136.319Z" fill="#FAFAFA"/>
<path d="M57.7512 147.976L41.5032 138.596L114.288 96.5728L130.868 105.762L57.7512 147.976Z" fill="#E0E0E0"/>
<path d="M53.3564 89.4916L122.579 49.5256L125.349 51.1248C126.065 51.5384 126.651 52.5532 126.651 53.3804V104.445C126.651 105.272 126.065 106.287 125.349 106.7L58.7308 145.162C58.0148 145.576 56.8424 145.576 56.1264 145.162L54.6588 144.315C53.9428 143.902 53.3568 142.887 53.3568 142.06L53.3564 89.4916Z" fill="#F59566"/>
<path opacity="0.2" d="M53.3564 89.4916L122.579 49.5256L125.349 51.1248C126.065 51.5384 126.651 52.5532 126.651 53.3804V104.445C126.651 105.272 126.065 106.287 125.349 106.7L58.7308 145.162C58.0148 145.576 56.8424 145.576 56.1264 145.162L54.6588 144.315C53.9428 143.902 53.3568 142.887 53.3568 142.06L53.3564 89.4916Z" fill="black"/>
<path d="M122.198 45.0364L122.481 44.8824L121.405 44.2576V44.2584C121.313 44.2044 121.218 44.158 121.12 44.122L90.6544 32.8332C89.848 32.5344 88.8008 32.8676 88.3148 33.5768L54.236 83.344C53.7504 84.0536 53.3564 85.3256 53.3564 86.1852C53.3564 87.6076 53.3564 89.4904 53.3564 89.4904L54.4128 90.104L122.58 49.5252V46.2196C122.58 45.8172 122.432 45.3996 122.198 45.0364Z" fill="#F59566"/>
<path opacity="0.1" d="M89.726 33.818C89.5912 33.9216 89.4716 34.0516 89.3732 34.1916L55.2916 83.9572C55.0424 84.3256 54.814 84.8448 54.6584 85.3792L53.5996 84.7668C53.6776 84.5072 53.7708 84.2528 53.8748 84.0144C53.88 84.004 53.88 83.9988 53.8852 83.9936C53.932 83.89 53.9788 83.7912 54.0304 83.6924C54.0408 83.6768 54.046 83.6612 54.0564 83.6456C54.1136 83.5364 54.1756 83.4328 54.238 83.3444L88.3144 33.5788C88.3664 33.5008 88.4232 33.4388 88.4856 33.3712C88.5428 33.314 88.6048 33.2572 88.6672 33.2052L89.726 33.818Z" fill="black"/>
<path opacity="0.35" d="M122.469 44.8777C122.375 44.8205 122.277 44.7741 122.178 44.7377L91.7084 33.4445C91.0648 33.2057 90.2656 33.3717 89.726 33.8181L88.6672 33.2057C89.212 32.7645 90.0064 32.5933 90.6548 32.8321L121.119 44.1201C121.218 44.1565 121.311 44.2033 121.405 44.2601L122.469 44.8777Z" fill="white"/>
<path d="M54.054 83.6436C54.1128 83.536 54.1732 83.4352 54.2356 83.344C54.1736 83.4352 54.1128 83.536 54.054 83.6436Z" fill="#F59566"/>
<path d="M88.486 33.3716C88.5432 33.3132 88.6044 33.258 88.6684 33.2056C88.6044 33.2576 88.5424 33.3116 88.486 33.3716Z" fill="#F59566"/>
<path d="M53.5977 84.768C53.6757 84.5072 53.7697 84.2508 53.8745 84.0128C53.7693 84.2508 53.6757 84.5068 53.5977 84.768Z" fill="#F59566"/>
<path d="M53.8832 83.9916C53.9296 83.8872 53.9792 83.7888 54.0292 83.6936C53.9792 83.7888 53.93 83.8872 53.8832 83.9916Z" fill="#F59566"/>
<path opacity="0.2" d="M88.3148 33.5768C88.3652 33.5032 88.4248 33.4368 88.486 33.3716C88.4236 33.4352 88.3652 33.5032 88.3148 33.5768Z" fill="black"/>
<path d="M89.3711 34.19L55.2919 83.9576C54.8063 84.6672 54.4124 85.9392 54.4124 86.7988C54.4124 88.2212 54.4124 90.104 54.4124 90.104L123.636 50.1356L123.635 46.8332C123.635 45.9732 122.982 45.034 122.175 44.7352L91.7099 33.4464C90.9043 33.1476 89.8567 33.4808 89.3711 34.19Z" fill="#F59566"/>
<path opacity="0.05" d="M123.636 46.8332C123.636 46.438 123.493 46.0284 123.266 45.6696L54.658 85.3788C54.658 85.3788 54.6544 85.3848 54.6512 85.3896C54.5044 85.8824 54.4124 86.3875 54.4124 86.7987C54.4124 88.2211 54.4124 90.1039 54.4124 90.1039L123.636 50.1356L123.636 46.8332Z" fill="black"/>
<path d="M120.679 32.8056C120.679 32.45 120.555 32.1992 120.354 32.0808C120.151 31.9608 118.445 30.9784 118.242 30.8612C118.038 30.744 117.758 30.7608 117.447 30.94L60.6679 63.72C60.0475 64.0784 59.5443 64.9496 59.5443 65.666L59.5447 133.665C59.5447 134.023 59.6703 134.274 59.8735 134.392C60.0767 134.51 61.7787 135.492 61.9823 135.609C62.1855 135.726 62.4667 135.71 62.7767 135.53L119.556 102.75C120.177 102.392 120.68 101.52 120.68 100.804L120.679 32.8056Z" fill="#F59566"/>
<path opacity="0.95" d="M120.679 32.8056C120.679 32.45 120.555 32.1992 120.354 32.0808C120.151 31.9608 118.445 30.9784 118.242 30.8612C118.038 30.744 117.758 30.7608 117.447 30.94L60.6679 63.72C60.0475 64.0784 59.5443 64.9496 59.5443 65.666L59.5447 133.665C59.5447 134.023 59.6703 134.274 59.8735 134.392C60.0767 134.51 61.7787 135.492 61.9823 135.609C62.1855 135.726 62.4667 135.71 62.7767 135.53L119.556 102.75C120.177 102.392 120.68 101.52 120.68 100.804L120.679 32.8056Z" fill="white"/>
<path d="M62.7763 135.531L119.556 102.75C120.176 102.392 120.679 101.521 120.679 100.804L120.679 32.8056C120.679 32.0892 120.176 31.7984 119.555 32.1568L62.7759 64.9368C62.1555 65.2952 61.6523 66.1664 61.6523 66.8828L61.6527 134.882C61.6527 135.599 62.1559 135.889 62.7763 135.531Z" fill="#F59566"/>
<path opacity="0.8" d="M62.7763 135.531L119.556 102.75C120.176 102.392 120.679 101.521 120.679 100.804L120.679 32.8056C120.679 32.0892 120.176 31.7984 119.555 32.1568L62.7759 64.9368C62.1555 65.2952 61.6523 66.1664 61.6523 66.8828L61.6527 134.882C61.6527 135.599 62.1559 135.889 62.7763 135.531Z" fill="white"/>
<path d="M61.6507 134.882C61.6507 135.198 61.7495 135.432 61.9155 135.567C61.5367 135.354 60.0627 134.498 59.8759 134.394C59.6683 134.275 59.5439 134.026 59.5439 133.668V65.6648C59.5439 65.3068 59.6683 64.9124 59.8759 64.5592L61.9831 65.7736C61.7755 66.1264 61.6511 66.526 61.6511 66.8844V134.882H61.6507Z" fill="#F59566"/>
<path opacity="0.7" d="M61.6507 134.882C61.6507 135.198 61.7495 135.432 61.9155 135.567C61.5367 135.354 60.0627 134.498 59.8759 134.394C59.6683 134.275 59.5439 134.026 59.5439 133.668V65.6648C59.5439 65.3068 59.6683 64.9124 59.8759 64.5592L61.9831 65.7736C61.7755 66.1264 61.6511 66.526 61.6511 66.8844V134.882H61.6507Z" fill="white"/>
<path opacity="0.05" d="M61.6507 134.882C61.6507 135.198 61.7495 135.432 61.9155 135.567C61.5367 135.354 60.0627 134.498 59.8759 134.394C59.6683 134.275 59.5439 134.026 59.5439 133.668V65.6648C59.5439 65.3068 59.6683 64.9124 59.8759 64.5592L61.9831 65.7736C61.7755 66.1264 61.6511 66.526 61.6511 66.8844V134.882H61.6507Z" fill="black"/>
<path d="M82.3732 83.4896C82.1232 89.8152 82.5488 103.371 82.5488 103.371C82.5488 103.371 89.254 105.398 93.8128 104.642C98.3716 103.886 108.12 96.9812 108.12 96.9812L106.495 82.3104L82.3732 83.4896Z" fill="#37474F"/>
<path d="M97.9408 103.141L99.03 92.808C103.304 90.26 104.694 86.7324 104.694 86.7324C100.805 91.8252 96.7472 91.0008 96.7472 91.0008V103.688C97.1356 103.52 97.5348 103.337 97.9408 103.141Z" fill="#263238"/>
<path d="M109.173 64.4301C110.259 58.9245 110.751 51.6081 105.961 50.2653C104.714 49.9157 101.537 50.1585 101.537 50.1585L96.3728 50.4149C93.4972 50.7817 89.4632 51.3533 88.4068 51.6133C85.6324 52.2957 84.8088 56.8273 83.5652 66.8697C82.7864 73.1577 82.124 78.0665 82.124 84.1865C87.1976 88.7353 103.055 86.9441 106.664 83.9853C106.813 77.0489 107.191 74.4757 109.173 64.4301Z" fill="#455A64"/>
<path d="M95.4973 48.5392C95.4477 49.5448 96.6049 51.2416 98.3753 52.4328C100.146 53.624 101.671 54.1064 101.865 54.6036C101.025 54.7612 100.266 55.1776 99.6405 56.62C99.0433 57.9976 99.0489 58.042 97.0053 56.62C94.9617 55.198 93.1337 51.9352 93.1381 50.8484C93.1425 49.7616 94.7445 47.6588 95.5309 47.8372L95.4973 48.5392Z" fill="#37474F"/>
<path d="M101.865 54.6035C102.464 53.9499 103.031 52.3059 103.104 51.5955C103.176 50.8851 103.365 49.0179 103.365 49.0179C103.365 49.0179 103.852 49.1435 104.072 49.4771C104.293 49.8107 105.38 52.0583 105.345 53.3135C105.31 54.5687 105.016 56.2659 104.592 56.9819C104.167 57.6975 103.883 56.4347 103.606 55.9455C103.246 55.3099 102.752 54.6207 101.865 54.6035Z" fill="#37474F"/>
<path d="M101.057 56.0436C101.057 56.0436 101.155 60.5776 100.738 62.988C100.738 62.988 102.103 63.238 103.435 62.9156C103.435 62.9156 102.743 63.7676 100.208 63.376C100.208 63.376 100.987 58.6436 101.057 56.0436Z" fill="#37474F"/>
<path d="M111.789 35.1096C111.73 31.1364 108.462 27.9632 104.489 28.022C100.772 28.0768 97.7563 30.9416 97.4307 34.5636L94.1635 32.2392C94.1635 32.2392 92.9719 32.0532 92.0595 33.014C91.1651 33.9564 91.7151 36.8556 92.8883 39.686C92.8883 39.686 94.0683 44.8536 94.5235 45.6988C94.9787 46.544 95.8963 46.7724 95.8963 46.7724L95.7835 43.628L108.853 42.6896L107.56 41.7696C110.089 40.624 111.833 38.0632 111.789 35.1096Z" fill="#263238"/>
<path d="M95.5936 39.8865C95.1804 40.1417 94.8036 39.2677 94.052 38.8193C93.4132 38.4381 91.9776 37.7697 91.0304 39.3553C90.0104 41.0633 91.8616 43.4249 93.158 43.9113C95.0776 44.6321 95.7652 43.1269 95.7652 43.1269L95.3688 51.1277C97.9828 55.8893 105.741 55.5825 103.103 51.5953L103.42 48.5101C103.42 48.5101 105.487 48.7925 106.491 48.6221C108.162 48.3385 109.195 47.0021 109.676 45.1825C110.449 42.2597 110.724 39.9053 109.947 34.1909C109.096 27.9281 101.798 27.9705 97.8936 30.5089C93.9892 33.0481 95.5936 39.8865 95.5936 39.8865Z" fill="#FFA8A7"/>
<path d="M111.541 28.344C111.011 28.0548 110.37 28.0324 109.775 28.1412C109.909 27.2404 109.298 26.3572 108.496 25.9932C107.525 25.552 106.648 25.708 105.792 26.3544C105.969 25.7184 105.391 25.0704 104.746 24.9296C104.1 24.7888 103.436 25.0104 102.82 25.2464C101.902 25.5972 100.999 25.9872 100.067 26.2988C98.4243 26.8476 96.6763 27.1608 95.1907 28.0508C94.8399 28.2608 94.5015 28.5076 94.2623 28.8392C93.9279 29.3028 93.8163 29.898 93.8423 30.4692C93.8511 30.6596 93.8827 30.8456 93.9215 31.0296C93.8111 30.9096 93.6831 30.8036 93.5319 30.7252C92.8303 30.362 91.9807 30.6572 91.6339 31.3844L94.1083 32.666C94.0467 33.1644 93.9851 33.6628 93.9347 34.1624C93.8015 35.482 93.5455 37.0196 93.8435 38.332C93.8771 38.4804 93.9019 38.6532 94.0047 38.7724C94.0047 38.7724 94.6447 39.2364 95.2919 40.0244C95.4835 40.2576 95.7147 40.634 96.0247 40.7256C96.3335 40.8168 96.7707 40.6436 96.8799 40.3356C96.9455 40.1508 96.9271 39.948 96.9079 39.7528C96.8279 38.9396 96.7479 38.1268 96.6679 37.3136C96.6467 37.0964 96.6263 36.8696 96.7075 36.6672C96.8163 36.3948 97.0811 36.2244 97.3039 36.034C97.8723 35.5484 98.2311 34.826 98.2751 34.08C98.2891 33.8456 98.2735 33.6056 98.3407 33.3804C98.3919 33.2084 98.5275 32.94 98.7239 32.9396C99.1055 32.938 101.177 33.3892 101.698 33.4604C104.408 33.832 107.32 33.904 109.712 32.574C110.643 32.056 112.212 30.982 112.375 29.8304C112.459 29.2312 112.072 28.6332 111.541 28.344Z" fill="#263238"/>
<path d="M103.42 48.51C103.42 48.51 99.6724 47.8124 98.3556 47.1372C97.4744 46.6852 96.742 45.8904 96.5232 45.3772C96.5232 45.3772 96.7844 46.4824 97.5804 47.4696C98.554 48.6768 103.318 49.5044 103.318 49.5044L103.42 48.51Z" fill="#F28F8F"/>
<path d="M103.26 39.2136C103.266 39.6164 102.957 39.9468 102.569 39.9512C102.182 39.956 101.862 39.6332 101.857 39.2304C101.851 38.8276 102.16 38.4976 102.548 38.4928C102.935 38.4884 103.254 38.8112 103.26 39.2136Z" fill="#263238"/>
<path d="M101.895 36.5964L100.249 37.3964C100.037 36.9244 100.234 36.3628 100.688 36.142C101.143 35.9208 101.683 36.1244 101.895 36.5964Z" fill="#263238"/>
<path d="M101.914 43.5984L104.889 44.6648C104.609 45.5168 103.716 45.9692 102.894 45.6748C102.072 45.3804 101.634 44.4508 101.914 43.5984Z" fill="#B16668"/>
<path d="M103.793 45.7129C103.675 44.8705 102.901 44.2785 102.056 44.3889C101.99 44.3977 101.928 44.4173 101.865 44.4337C101.969 44.9897 102.342 45.4773 102.894 45.6753C103.195 45.7829 103.506 45.7885 103.793 45.7129Z" fill="#F28F8F"/>
<path d="M109.697 37.14L108.108 36.3104C108.324 35.8744 108.854 35.7068 109.293 35.9356C109.732 36.1648 109.913 36.704 109.697 37.14Z" fill="#263238"/>
<path d="M108.889 39.0949C108.895 39.4977 108.586 39.8277 108.198 39.8325C107.81 39.8373 107.491 39.5145 107.486 39.1117C107.48 38.7089 107.789 38.3789 108.176 38.3741C108.564 38.3693 108.883 38.6921 108.889 39.0949Z" fill="#263238"/>
<path d="M105.308 38.6584L105.448 43.1988L108.126 42.576L105.308 38.6584Z" fill="#F28F8F"/>
<path d="M124.895 105.125C124.874 105.161 124.854 105.192 124.823 105.228L95.9764 96.0815C93.7108 95.0755 91.0584 95.8947 89.7428 98.0003L58.9044 143.835L57.764 144.494L57.7536 144.499C57.408 144.691 57.0984 144.717 56.8712 144.598L88.5868 97.3519C89.9028 95.2463 92.5604 94.4267 94.8256 95.4279L124.895 105.125Z" fill="#F59566"/>
<path opacity="0.4" d="M86.9024 102.5L86.9752 102.437L58.9032 143.837L57.7616 144.496L57.7512 144.502C57.4088 144.694 57.0972 144.714 56.8688 144.6L85.792 101.835L86.9024 102.5Z" fill="white"/>
<path opacity="0.4" d="M124.898 105.126C124.877 105.163 124.856 105.194 124.825 105.23L95.9744 96.08C93.7116 95.0732 91.0596 95.8932 89.7412 98.0004L88.5996 97.336C89.918 95.2392 92.5648 94.4296 94.8276 95.426L124.898 105.126Z" fill="white"/>
<path d="M126.628 53.0535H126.622C126.56 52.6799 126.363 52.5763 126.109 52.7523C126.01 52.8199 125.896 52.9339 125.777 53.0951L125.632 53.2975L97.1652 96.5751L92.9148 102.497C92.4372 103.172 91.3888 103.561 90.574 103.374L86.9048 102.502L58.8952 92.1903C58.6928 92.1435 58.5008 92.1383 58.3244 92.1695C58.2516 92.1851 58.1792 92.2059 58.1116 92.2371L59.1672 91.6267L86.0212 101.468L89.5568 102.73C90.3664 102.922 91.4148 102.533 91.8976 101.853L96.148 95.9367L124.754 52.4567C124.848 52.3271 124.962 52.2335 125.076 52.1607L122.601 50.7335L123.639 50.1367L125.352 51.1227C125.974 51.4863 126.498 52.3011 126.628 53.0535Z" fill="#F59566"/>
<path opacity="0.4" d="M97.1629 96.5727L92.9125 102.494C92.4349 103.169 91.3865 103.558 90.5717 103.372L86.9025 102.5L86.9753 102.437L87.1517 102.157L89.5545 102.728C90.3641 102.92 91.4125 102.53 91.8953 101.85L96.1041 95.9963L97.1629 96.5727Z" fill="white"/>
<path opacity="0.1" d="M125.349 51.1208L123.636 50.1348L122.598 50.7316L125.074 52.1588C125.076 52.1604 125.078 52.162 125.08 52.1636L125.075 52.1612C124.951 52.2396 124.841 52.3356 124.753 52.4572L96.1449 95.9348L96.1033 95.992V95.9972L97.1621 96.5732L125.628 53.2956L125.774 53.0932C125.893 52.9324 126.007 52.818 126.106 52.7508C126.36 52.5744 126.557 52.678 126.619 53.0516H126.624C126.496 52.2988 125.972 51.484 125.349 51.1208Z" fill="black"/>
<path d="M59.4636 93.0188L53.3564 89.4916L53.3568 142.06C53.3568 142.887 53.9428 143.902 54.6588 144.315L56.1264 145.162C56.8428 145.576 58.0148 145.576 58.7308 145.162L59.4636 144.739V93.0188Z" fill="#F59566"/>
<path opacity="0.15" d="M59.4636 93.0188L53.3564 89.4916L53.3568 142.06C53.3568 142.887 53.9428 143.902 54.6588 144.315L56.1264 145.162C56.8428 145.576 58.0148 145.576 58.7308 145.162L59.4636 144.739V93.0188Z" fill="black"/>
<path d="M126.654 53.3808V104.444C126.654 104.875 126.498 105.347 126.249 105.762C126.041 106.104 125.782 106.411 125.486 106.618L125.434 106.644C125.403 106.665 125.382 106.686 125.351 106.702L58.7341 145.158L58.7237 145.164C58.3761 145.361 58.0645 145.387 57.8361 145.268C57.6337 145.164 57.4937 144.951 57.4469 144.645C57.4365 144.572 57.4313 144.494 57.4313 144.411V93.3432C57.4313 92.518 58.0801 91.9992 58.8949 92.1912L86.9045 102.503L90.5737 103.375C91.3885 103.562 92.4369 103.172 92.9145 102.498L97.1649 96.576L125.631 53.2984L125.776 53.096C126.259 52.4256 126.654 52.5504 126.654 53.3808Z" fill="#F59566"/>
<path d="M125.35 106.702C125.38 106.686 125.405 106.666 125.436 106.646L125.486 106.616C125.781 106.411 126.042 106.105 126.248 105.764C126.494 105.355 126.647 104.888 126.652 104.468L97.1669 96.5759L116.912 111.574L125.35 106.702Z" fill="#F59566"/>
<path opacity="0.2" d="M125.35 106.702C125.38 106.686 125.405 106.666 125.436 106.646L125.486 106.616C125.781 106.411 126.042 106.105 126.248 105.764C126.494 105.355 126.647 104.888 126.652 104.468L97.1669 96.5759L116.912 111.574L125.35 106.702Z" fill="black"/>
<path d="M57.4301 144.408C57.4301 144.84 57.5857 145.135 57.8361 145.266C58.0665 145.386 58.3777 145.361 58.7233 145.165L58.7333 145.16L81.6689 131.919L86.9069 102.5L57.4313 143.56L57.4301 144.408Z" fill="#F59566"/>
<path opacity="0.15" d="M89.7308 97.9948L57.834 145.264C57.5848 145.135 57.4292 144.839 57.4292 144.408L57.4312 143.56L88.5892 97.3512C88.5892 97.346 88.5944 97.3408 88.5996 97.3356L89.7308 97.9948Z" fill="black"/>
<path d="M126.247 105.764C126.042 106.105 125.781 106.411 125.485 106.616L125.435 106.646L58.7328 145.16L58.7228 145.165C58.3768 145.36 58.066 145.385 57.8356 145.265L89.7356 97.9867C91.0576 95.8759 93.7292 95.0563 96.0076 96.0623L126.247 105.764Z" fill="#F59566"/>
<path opacity="0.15" d="M53.5992 84.7667L54.658 85.3791C54.5076 85.8771 54.414 86.3859 54.414 86.8011C54.414 88.2231 54.414 90.1019 54.414 90.1019L53.3552 89.4895C53.3552 89.4895 53.3552 87.6055 53.3552 86.1835C53.3552 85.7735 53.4488 85.2647 53.5992 84.7667Z" fill="black"/>
<path d="M59.1668 91.6268L58.1112 92.2372L57.042 91.6196L54.4108 90.104L55.4332 89.4968L59.1668 91.6268Z" fill="#F59566"/>
<path opacity="0.1" d="M59.2136 91.6468L55.4332 89.4972L54.4108 90.1044L57.042 91.6196L58.1112 92.2372L58.1224 92.2308C58.1864 92.2028 58.254 92.182 58.3224 92.1676C58.4988 92.1364 58.6908 92.1416 58.8932 92.1884L61.0216 92.9736L85.472 101.975L85.8544 101.408L59.2136 91.6468Z" fill="black"/>
<path d="M88.4064 51.6132C85.0128 51.8572 82.6856 52.6652 80.4984 57.92C79.0844 61.3172 73.5416 73.5248 73.0048 75.5424C72.3744 77.9128 70.9576 95.9236 70.9576 95.9236L74.1964 97.1388C74.1964 97.1388 73.0864 101.015 72.1496 103.23C71.0696 105.783 76.3444 105.248 78.0384 102.926C79.7376 100.598 80.8872 97.4988 79.9616 96.4092C78.738 94.9688 77.3904 94.0308 77.3904 94.0308L80.9364 77.962L88.372 62.1552C88.372 62.1552 92.1024 54.386 88.4064 51.6132Z" fill="#FFA8A7"/>
<path d="M77.3905 94.0308C75.6573 93.0528 74.1045 93.0928 74.1045 93.0928C74.1045 93.0928 75.8077 92.5468 77.5449 93.0924L77.3905 94.0308Z" fill="#F28F8F"/>
<path d="M89.1768 51.4572C87.2708 51.4412 83.7148 51.356 81.4116 55.5164C79.1084 59.6768 75.8508 67.5828 75.8508 67.5828C75.8508 67.5828 77.2052 70.9136 84.4524 71.6092L90.0044 59.7964C90.0044 59.7964 91.356 54.3756 89.1768 51.4572Z" fill="#37474F"/>
<path d="M113.767 54.1852C116.63 56.442 121.28 59.9924 123.54 61.4136C125.249 59.346 128.392 55.1644 129.154 54.2484C130.124 53.084 133.186 51.182 133.186 51.182L134.343 55.8204C134.343 55.8204 128.537 66.53 126.433 68.5124C124.216 70.6012 122.612 69.7352 118.28 67.7496C114.188 65.8736 109.745 63.548 109.745 63.548C110.625 55.7636 110.028 51.5472 106.309 50.2344C108.81 50.5452 111.365 52.2916 113.767 54.1852Z" fill="#FFA8A7"/>
<path d="M121.245 59.8467C119.748 60.2579 116.655 64.6595 117.22 67.4439L109.339 63.5483C110.293 58.1747 110.498 51.5367 105.961 50.2647C105.625 50.1687 105.149 50.1207 104.633 50.0967C106.893 49.8727 108.368 49.9387 110.736 51.7187C113.104 53.4987 121.245 59.8467 121.245 59.8467Z" fill="#37474F"/>
<path d="M123.54 61.4136C122.411 62.4032 122.046 64.1888 121.827 64.8952C121.827 64.8952 121.592 62.832 122.888 60.9888L123.54 61.4136Z" fill="#F28F8F"/>
<path d="M134.514 45.9924L137.214 44.3536C137.214 44.3536 137.525 58.9312 137.535 59.4052C137.545 59.8792 138.102 60.3416 138.102 60.3416L135.401 61.9784C135.401 61.9784 134.844 61.516 134.834 61.0428C134.824 60.5692 134.514 45.9924 134.514 45.9924Z" fill="#37474F"/>
<path d="M137.344 50.4292C137.344 50.4292 138.12 50.614 138.417 51.8172C138.714 53.0208 138.863 55.32 138.172 56.0776C137.48 56.8352 136.536 57.1656 135.908 56.8932C134.735 56.3836 135.092 54.0028 136.032 53.4536C137.535 52.576 137.355 51.6092 137.355 51.6092L137.344 50.4292Z" fill="#FFA8A7"/>
<path d="M131.188 46.0364L132.372 47.48L132.585 57.7604L131.382 59.77L135.401 61.978C135.05 61.674 134.868 61.3616 134.834 61.0424L134.554 47.8844L131.188 46.0364Z" fill="#455A64"/>
<path d="M131.383 59.7704L131.396 60.402L135.414 62.61L135.401 61.9788L131.383 59.7704Z" fill="#F59566"/>
<path d="M135.414 62.61L138.116 60.9732L138.102 60.342L135.401 61.9788L135.414 62.61Z" fill="#F59566"/>
<path opacity="0.1" d="M135.414 62.61L138.116 60.9732L138.102 60.342L135.401 61.9788L135.414 62.61Z" fill="black"/>
<path d="M131.974 38.9024C131.449 38.7724 130.84 38.9936 130.276 39.5972L130.256 39.6192C129.141 40.8124 128.624 43.0464 129.1 44.6084L129.109 44.6372C129.356 45.4464 129.821 45.9152 130.366 46.0148L132.702 46.5772L134.134 39.4236L131.974 38.9024Z" fill="#F59566"/>
<path opacity="0.7" d="M131.974 38.9024C131.449 38.7724 130.84 38.9936 130.276 39.5972L130.256 39.6192C129.141 40.8124 128.624 43.0464 129.1 44.6084L129.109 44.6372C129.356 45.4464 129.821 45.9152 130.366 46.0148L132.702 46.5772L134.134 39.4236L131.974 38.9024Z" fill="white"/>
<path opacity="0.05" d="M130.366 46.0144L132.702 46.5768L133.177 44.2056L128.926 43.2208C128.917 43.7096 128.971 44.184 129.1 44.608L129.109 44.6368C129.355 45.446 129.821 45.9152 130.366 46.0144Z" fill="black"/>
<path d="M136.71 39.1028L136.709 39.1044C136.118 38.9688 135.446 39.1868 134.806 39.7828C134.739 39.844 134.672 39.9108 134.605 39.982C134.527 40.0664 134.452 40.1528 134.378 40.2452C134.257 40.3964 134.142 40.5564 134.035 40.7272C133.838 41.0364 133.665 41.3736 133.517 41.73C133.122 42.6868 132.912 43.7728 132.936 44.7868C132.948 45.2984 133.019 45.7904 133.156 46.24C133.448 47.1944 133.982 47.7736 134.614 47.9412L132.391 47.428L132.392 47.4232C131.603 47.2048 130.92 46.5936 130.634 45.6544C130.503 45.2252 130.432 44.7556 130.416 44.2692C130.381 43.2364 130.591 42.1236 130.995 41.1456C131.143 40.7896 131.316 40.4508 131.513 40.1428C131.62 39.972 131.734 39.8108 131.856 39.6608C131.93 39.568 132.006 39.4804 132.083 39.3976C132.149 39.3268 132.218 39.2608 132.287 39.1988C132.926 38.6352 133.715 38.4468 134.44 38.5816L134.441 38.58L134.503 38.5936C134.529 38.6 134.556 38.6056 134.582 38.6132L136.71 39.1028Z" fill="#F59566"/>
<path opacity="0.1" d="M132.391 47.428L132.392 47.4232C131.603 47.2048 130.92 46.5936 130.634 45.6544C130.503 45.2252 130.432 44.7556 130.416 44.2692L132.936 44.7864C132.948 45.298 133.02 45.79 133.157 46.2396C133.448 47.194 133.982 47.7732 134.615 47.9408L132.391 47.428Z" fill="black"/>
<path d="M138.218 40.8192C138.816 42.7788 138.167 45.5796 136.769 47.076C136.067 47.8292 135.307 48.1088 134.65 47.95C134.638 47.948 134.626 47.9448 134.614 47.9412C133.981 47.7736 133.447 47.1944 133.156 46.24C132.559 44.2804 133.207 41.4796 134.605 39.982C135.302 39.2356 136.056 38.954 136.708 39.104C137.364 39.2536 137.919 39.8376 138.218 40.8192Z" fill="#F59566"/>
<path opacity="0.2" d="M138.218 40.8192C138.816 42.7788 138.167 45.5796 136.769 47.076C136.067 47.8292 135.307 48.1088 134.65 47.95C134.638 47.948 134.626 47.9448 134.614 47.9412C133.981 47.7736 133.447 47.1944 133.156 46.24C132.559 44.2804 133.207 41.4796 134.605 39.982C135.302 39.2356 136.056 38.954 136.708 39.104C137.364 39.2536 137.919 39.8376 138.218 40.8192Z" fill="black"/>
<path d="M147.482 37.4412C147.482 37.4412 144.868 39.9764 143.619 45.3676C143.374 46.4264 143.224 47.4108 143.143 48.3068C142.807 51.9728 143.603 54.1852 143.603 54.1852C141.989 52.2048 140.127 50.2124 137.664 49.0032C136.14 48.2548 134.708 47.7516 134.708 47.7516L134.709 47.7488C134.112 47.6092 133.621 47.06 133.353 46.1792C133.176 45.5992 133.113 44.9428 133.15 44.2684C133.171 43.842 133.233 43.4084 133.332 42.9832C133.586 41.8864 134.081 40.8456 134.756 40.1224C135.385 39.4496 136.067 39.1724 136.664 39.3092L136.665 39.3068C136.665 39.3068 138.172 39.4844 139.87 39.4828C142.613 39.48 145.162 38.51 147.482 37.4412Z" fill="#F59566"/>
<path opacity="0.7" d="M147.482 37.4412C147.482 37.4412 144.868 39.9764 143.619 45.3676C143.374 46.4264 143.224 47.4108 143.143 48.3068C142.807 51.9728 143.603 54.1852 143.603 54.1852C141.989 52.2048 140.127 50.2124 137.664 49.0032C136.14 48.2548 134.708 47.7516 134.708 47.7516L134.709 47.7488C134.112 47.6092 133.621 47.06 133.353 46.1792C133.176 45.5992 133.113 44.9428 133.15 44.2684C133.171 43.842 133.233 43.4084 133.332 42.9832C133.586 41.8864 134.081 40.8456 134.756 40.1224C135.385 39.4496 136.067 39.1724 136.664 39.3092L136.665 39.3068C136.665 39.3068 138.172 39.4844 139.87 39.4828C142.613 39.48 145.162 38.51 147.482 37.4412Z" fill="white"/>
<path opacity="0.05" d="M143.143 48.3068C142.807 51.9728 143.603 54.1852 143.603 54.1852C141.989 52.2048 140.127 50.2124 137.664 49.0032C136.14 48.2548 134.708 47.7516 134.708 47.7516L134.709 47.7488C134.112 47.6092 133.621 47.06 133.353 46.1792C133.176 45.5992 133.113 44.9428 133.15 44.2684C135.857 44.7288 140.317 45.7388 143.143 48.3068Z" fill="black"/>
<path d="M154.669 40.0832C155.291 42.1264 155.345 44.5544 154.927 46.9388L154.927 46.94C154.391 49.994 153.086 52.9728 151.217 54.9728C147.891 58.534 144.042 57.6416 142.621 52.9808C142.296 51.914 142.127 50.7436 142.097 49.5292C142.027 46.5376 142.811 43.2812 144.237 40.6724C144.438 40.3044 144.651 39.9508 144.877 39.6116C144.971 39.4704 145.067 39.3312 145.165 39.1956L145.167 39.1952C145.306 39.002 145.449 38.8148 145.597 38.6344C145.751 38.4468 145.908 38.2648 146.071 38.0916C149.398 34.5304 153.247 35.4208 154.669 40.0832Z" fill="#F59566"/>
<path opacity="0.1" d="M154.927 46.9399C154.391 49.9939 153.086 52.9727 151.218 54.9727C147.891 58.5339 144.042 57.6415 142.622 52.9807C142.296 51.9139 142.127 50.7435 142.097 49.5291L142.098 49.5287C142.555 50.0483 143.799 50.6095 144.055 49.8727C144.086 50.9587 144.239 51.9963 144.524 52.9327C144.933 54.2723 145.561 55.2623 146.341 55.7975C147.007 56.2535 147.762 56.3583 148.585 56.1059C149.386 55.8631 150.226 55.2847 151.017 54.4395C152.606 52.7383 153.769 50.1975 154.335 47.5479C154.335 47.5479 154.652 47.6843 154.927 46.9399Z" fill="black"/>
<path d="M154.248 40.4956C154.876 42.554 154.862 45.0984 154.336 47.5484C153.77 50.1976 152.607 52.7388 151.018 54.44C150.226 55.2852 149.386 55.8636 148.586 56.1064C147.763 56.3588 147.008 56.254 146.342 55.798C145.562 55.2628 144.934 54.2732 144.525 52.9332C144.24 51.9968 144.087 50.9592 144.056 49.8732C144.043 49.4632 144.048 49.046 144.071 48.6252C144.109 47.8928 144.198 47.1448 144.336 46.4056C144.364 46.2532 144.394 46.102 144.426 45.9516C144.477 45.7008 144.534 45.4496 144.598 45.202C144.812 44.3524 145.09 43.5216 145.422 42.7348C145.425 42.7268 145.43 42.7168 145.434 42.7076C145.656 42.1836 145.901 41.6808 146.168 41.204C146.36 40.8608 146.564 40.5324 146.778 40.2196C146.868 40.088 146.96 39.96 147.054 39.8344C147.167 39.6844 147.283 39.538 147.402 39.3948C147.517 39.2568 147.636 39.1236 147.755 38.994C148.548 38.144 149.389 37.5692 150.189 37.3244C151.96 36.7832 153.478 37.9708 154.248 40.4956Z" fill="#F59566"/>
<path opacity="0.3" d="M154.248 40.4956C154.876 42.554 154.862 45.0984 154.336 47.5484C153.77 50.1976 152.607 52.7388 151.018 54.44C150.226 55.2852 149.386 55.8636 148.586 56.1064C147.763 56.3588 147.008 56.254 146.342 55.798C145.562 55.2628 144.934 54.2732 144.525 52.9332C144.24 51.9968 144.087 50.9592 144.056 49.8732C144.043 49.4632 144.048 49.046 144.071 48.6252C144.109 47.8928 144.198 47.1448 144.336 46.4056C144.364 46.2532 144.394 46.102 144.426 45.9516C144.477 45.7008 144.534 45.4496 144.598 45.202C144.812 44.3524 145.09 43.5216 145.422 42.7348C145.425 42.7268 145.43 42.7168 145.434 42.7076C145.656 42.1836 145.901 41.6808 146.168 41.204C146.36 40.8608 146.564 40.5324 146.778 40.2196C146.868 40.088 146.96 39.96 147.054 39.8344C147.167 39.6844 147.283 39.538 147.402 39.3948C147.517 39.2568 147.636 39.1236 147.755 38.994C148.548 38.144 149.389 37.5692 150.189 37.3244C151.96 36.7832 153.478 37.9708 154.248 40.4956Z" fill="black"/>
<path d="M148.385 43.5356L147.28 49.106C146.477 49.0552 145.125 48.994 144.054 49.0432C144.057 48.9044 144.063 48.766 144.071 48.6256C144.109 47.8932 144.198 47.1452 144.336 46.406C144.364 46.2536 144.394 46.1024 144.426 45.952C144.477 45.7012 144.534 45.45 144.598 45.2024C144.812 44.3528 145.09 43.522 145.422 42.7352C145.425 42.7272 145.43 42.7172 145.434 42.708C145.483 42.5928 145.532 42.478 145.584 42.3652C146.846 43.06 148.385 43.5356 148.385 43.5356Z" fill="#F59566"/>
<g opacity="0.4">
<path d="M148.385 43.5356L147.28 49.106C146.477 49.0552 145.125 48.994 144.054 49.0432C144.057 48.9044 144.063 48.766 144.071 48.6256C144.109 47.8932 144.198 47.1452 144.336 46.406C144.364 46.2536 144.394 46.1024 144.426 45.952C144.477 45.7012 144.534 45.45 144.598 45.2024C144.812 44.3528 145.09 43.522 145.422 42.7352C145.425 42.7272 145.43 42.7172 145.434 42.708C145.483 42.5928 145.532 42.478 145.584 42.3652C146.846 43.06 148.385 43.5356 148.385 43.5356Z" fill="white"/>
</g>
<path d="M147.49 49.0284C146.911 49.2052 146.422 48.8424 146.183 48.058L146.176 48.034C145.8 46.8012 146.21 45.0316 147.09 44.0896L147.107 44.0712C147.341 43.82 147.595 43.648 147.839 43.5732C148.419 43.3964 148.908 43.7592 149.147 44.544L149.154 44.568C149.53 45.8008 149.12 47.5704 148.24 48.5124L148.223 48.5308C147.988 48.7816 147.735 48.9536 147.49 49.0284Z" fill="#F59566"/>
<g opacity="0.7">
<path d="M147.49 49.0284C146.911 49.2052 146.422 48.8424 146.183 48.058L146.176 48.034C145.8 46.8012 146.21 45.0316 147.09 44.0896L147.107 44.0712C147.341 43.82 147.595 43.648 147.839 43.5732C148.419 43.3964 148.908 43.7592 149.147 44.544L149.154 44.568C149.53 45.8008 149.12 47.5704 148.24 48.5124L148.223 48.5308C147.988 48.7816 147.735 48.9536 147.49 49.0284Z" fill="white"/>
</g>
<path d="M146.144 34.6976C145.826 34.7948 145.489 34.6152 145.392 34.2968L143.691 28.7196C143.594 28.4008 143.773 28.064 144.092 27.9668C144.411 27.8696 144.748 28.0492 144.845 28.3676L146.545 33.9448C146.643 34.2636 146.463 34.6004 146.144 34.6976Z" fill="#E0E0E0"/>
<path d="M141.484 37.6048C141.285 37.6656 141.06 37.6212 140.896 37.4688L136.636 33.4888C136.392 33.2612 136.379 32.88 136.606 32.6364C136.832 32.3936 137.215 32.38 137.459 32.6072L141.72 36.5872C141.963 36.8148 141.976 37.196 141.749 37.4396C141.674 37.5196 141.582 37.5748 141.484 37.6048Z" fill="#E0E0E0"/>
<path d="M144.399 66.092C144.301 66.122 144.194 66.1272 144.088 66.1024C143.763 66.0272 143.561 65.7032 143.636 65.3788L144.952 59.6988C145.027 59.374 145.35 59.1716 145.675 59.2472C146 59.3224 146.202 59.6464 146.127 59.9708L144.811 65.6508C144.76 65.8688 144.598 66.0312 144.399 66.092Z" fill="#E0E0E0"/>
<path d="M154.981 63.6824C154.662 63.7796 154.325 63.6 154.228 63.2812L152.528 57.704C152.43 57.3856 152.61 57.0484 152.928 56.9512C153.247 56.854 153.584 57.0336 153.681 57.3524L155.382 62.9296C155.479 63.2484 155.3 63.5856 154.981 63.6824Z" fill="#E0E0E0"/>
<path d="M161.256 56.0707C161.056 56.1315 160.831 56.0872 160.668 55.9348L156.407 51.9551C156.163 51.7279 156.15 51.3463 156.378 51.1027C156.604 50.8599 156.986 50.8459 157.23 51.0735L161.492 55.0531C161.735 55.2803 161.748 55.662 161.52 55.9056C161.446 55.986 161.354 56.0407 161.256 56.0707Z" fill="#E0E0E0"/>
<path d="M165.256 48.5596C165.158 48.5896 165.052 48.5948 164.945 48.5704L159.265 47.254C158.94 47.1788 158.738 46.8548 158.814 46.5304C158.889 46.2056 159.213 46.004 159.537 46.0788L165.217 47.3948C165.542 47.47 165.744 47.794 165.668 48.1184C165.618 48.3364 165.456 48.4988 165.256 48.5596Z" fill="#E0E0E0"/>
<path d="M164.967 40.0532L159.39 41.7536C159.071 41.8508 158.734 41.6712 158.637 41.3528C158.54 41.0344 158.719 40.6972 159.038 40.6L164.615 38.8996C164.934 38.8024 165.27 38.982 165.368 39.3004C165.465 39.6192 165.286 39.956 164.967 40.0532Z" fill="#E0E0E0"/>
<path d="M156.483 37.0928C156.284 37.1536 156.058 37.1092 155.895 36.9568C155.652 36.7296 155.639 36.348 155.866 36.1044L159.846 31.8436C160.071 31.6004 160.454 31.5872 160.698 31.8144C160.941 32.0416 160.954 32.4232 160.727 32.6668L156.747 36.9276C156.673 37.008 156.581 37.0628 156.483 37.0928Z" fill="#E0E0E0"/>
<path d="M151.634 34.5104C151.536 34.5404 151.429 34.5456 151.323 34.5212C150.998 34.446 150.796 34.122 150.871 33.7976L152.188 28.1176C152.263 27.7928 152.587 27.5908 152.911 27.666C153.236 27.7412 153.438 28.0652 153.363 28.3896L152.046 34.0696C151.996 34.2872 151.833 34.4496 151.634 34.5104Z" fill="#E0E0E0"/>
<path d="M129.154 54.2488C130.305 52.79 130.349 51.8768 131.245 51.162C132.142 50.4468 133.044 50.4008 134.378 50.7836C135.384 51.0724 136.564 50.928 136.972 51.3016C137.087 51.3788 136.907 52.026 136.434 52.2576C135.866 52.5364 134.948 52.4684 134.271 52.472C132.729 52.4804 133.993 53.9928 132.509 55.5272C131.878 56.6276 129.154 54.2488 129.154 54.2488Z" fill="#FFA8A7"/>
<path d="M164.48 77.3941L178.63 68.3317L184.864 70.3329L164.48 77.3941Z" fill="#F59566"/>
<path d="M164.48 77.394L176.71 67.1944L173.992 64.056L164.48 77.394Z" fill="#F59566"/>
<path d="M176.71 67.1945V69.5613L164.48 77.3941L176.71 67.1945Z" fill="#F59566"/>
<path opacity="0.25" d="M176.71 67.1945V69.5613L164.48 77.3941L176.71 67.1945Z" fill="black"/>
<path d="M179.612 65.8248C179.5 65.8248 179.389 65.778 179.31 65.6864C179.165 65.5192 179.183 65.2664 179.351 65.122C179.597 64.9088 179.839 64.6892 180.076 64.4628C180.236 64.3104 180.489 64.316 180.642 64.476C180.794 64.6356 180.788 64.8888 180.629 65.0416C180.382 65.2768 180.131 65.5056 179.874 65.7276C179.798 65.7928 179.705 65.8248 179.612 65.8248Z" fill="#E0E0E0"/>
<path d="M181.717 63.7272C181.623 63.7272 181.529 63.6944 181.453 63.628C181.287 63.4824 181.271 63.2296 181.416 63.0636C181.835 62.586 182.243 62.078 182.631 61.5536C182.762 61.376 183.013 61.338 183.19 61.4692C183.368 61.6004 183.406 61.8508 183.275 62.0284C182.874 62.5712 182.451 63.0968 182.017 63.5908C181.939 63.6808 181.828 63.7272 181.717 63.7272ZM184.062 60.56C183.989 60.56 183.916 60.5404 183.85 60.4992C183.663 60.3824 183.606 60.1356 183.723 59.948C184.061 59.408 184.387 58.8412 184.692 58.2632C184.795 58.068 185.037 57.9932 185.233 58.096C185.428 58.1996 185.503 58.4412 185.4 58.6368C185.085 59.232 184.75 59.8156 184.402 60.3724C184.325 60.4936 184.195 60.56 184.062 60.56ZM185.903 57.0744C185.849 57.0744 185.795 57.0636 185.742 57.0404C185.54 56.9508 185.449 56.7148 185.538 56.5128C185.797 55.9256 186.042 55.3184 186.265 54.7072C186.34 54.5 186.57 54.3936 186.777 54.4684C186.985 54.544 187.092 54.7736 187.016 54.9812C186.788 55.6084 186.537 56.2324 186.269 56.836C186.203 56.9856 186.057 57.0744 185.903 57.0744ZM187.256 53.3692C187.219 53.3692 187.181 53.364 187.143 53.3532C186.932 53.2912 186.81 53.0688 186.872 52.8568C187.053 52.2384 187.217 51.604 187.36 50.9708C187.409 50.7552 187.621 50.6196 187.838 50.6684C188.053 50.7168 188.189 50.9308 188.14 51.1464C187.994 51.796 187.825 52.4468 187.64 53.0816C187.589 53.256 187.429 53.3692 187.256 53.3692ZM188.123 49.5208C188.102 49.5208 188.081 49.5192 188.059 49.5156C187.841 49.4808 187.693 49.2756 187.727 49.0576C187.829 48.42 187.912 47.77 187.974 47.1244C187.995 46.9044 188.195 46.7372 188.41 46.7648C188.63 46.786 188.791 46.9812 188.77 47.2012C188.707 47.8628 188.621 48.53 188.517 49.1836C188.486 49.3804 188.316 49.5208 188.123 49.5208ZM188.497 45.5932C188.493 45.5932 188.488 45.5932 188.484 45.5932C188.263 45.586 188.09 45.4016 188.097 45.1808C188.106 44.8728 188.111 44.5644 188.111 44.2564C188.111 43.9152 188.105 43.5744 188.093 43.2336C188.085 43.0128 188.258 42.8272 188.479 42.82C188.707 42.8032 188.885 42.9848 188.893 43.2056C188.905 43.5556 188.911 43.906 188.911 44.2564C188.911 44.5728 188.906 44.8892 188.897 45.2056C188.889 45.422 188.712 45.5932 188.497 45.5932ZM188.357 41.6508C188.154 41.6508 187.981 41.4976 187.959 41.292C187.893 40.6448 187.803 39.9968 187.692 39.3656C187.654 39.148 187.799 38.9404 188.017 38.9024C188.239 38.8644 188.442 39.0104 188.481 39.2276C188.594 39.8776 188.687 40.5448 188.756 41.2104C188.779 41.4304 188.619 41.6268 188.399 41.6496C188.384 41.65 188.371 41.6508 188.357 41.6508ZM187.674 37.7652C187.495 37.7652 187.333 37.6444 187.286 37.4632C187.127 36.8336 186.943 36.2064 186.738 35.5996C186.667 35.3904 186.78 35.1632 186.989 35.0928C187.199 35.0208 187.425 35.1356 187.496 35.344C187.707 35.97 187.898 36.6172 188.062 37.2672C188.116 37.4812 187.986 37.6988 187.772 37.7532C187.739 37.7616 187.706 37.7652 187.674 37.7652ZM186.411 34.0292C186.256 34.0292 186.109 33.9388 186.044 33.7876C185.787 33.192 185.503 32.6044 185.201 32.042C185.096 31.8476 185.169 31.6048 185.363 31.5004C185.557 31.396 185.801 31.4688 185.905 31.6632C186.218 32.246 186.512 32.8544 186.778 33.4708C186.866 33.674 186.772 33.9092 186.569 33.9964C186.517 34.0188 186.464 34.0292 186.411 34.0292ZM184.542 30.5592C184.412 30.5592 184.285 30.496 184.208 30.3792C183.853 29.8404 183.47 29.314 183.069 28.8144C182.931 28.642 182.959 28.3904 183.131 28.2524C183.305 28.1144 183.556 28.1424 183.693 28.3144C184.109 28.8332 184.507 29.38 184.875 29.9396C184.997 30.124 184.946 30.372 184.761 30.4936C184.694 30.5376 184.617 30.5592 184.542 30.5592ZM182.081 27.4808C181.975 27.4808 181.87 27.4392 181.791 27.3568C181.353 26.8976 180.884 26.4416 180.398 26.0016C180.234 25.8532 180.221 25.6004 180.369 25.4364C180.517 25.2728 180.771 25.2604 180.935 25.408C181.436 25.8612 181.919 26.3312 182.37 26.8044C182.523 26.9644 182.517 27.2176 182.357 27.37C182.279 27.4444 182.18 27.4808 182.081 27.4808ZM179.157 24.8324C179.07 24.8324 178.983 24.8044 178.91 24.7464C178.409 24.352 177.882 23.9624 177.342 23.5884C177.161 23.4624 177.115 23.2132 177.241 23.0316C177.366 22.85 177.615 22.8048 177.798 22.9304C178.351 23.3136 178.891 23.7132 179.405 24.118C179.579 24.2548 179.608 24.5064 179.471 24.6796C179.393 24.78 179.275 24.8324 179.157 24.8324ZM175.915 22.5836C175.844 22.5836 175.773 22.5648 175.707 22.5248C175.161 22.1912 174.591 21.8644 174.014 21.5524C173.82 21.4476 173.747 21.2048 173.852 21.0108C173.957 20.8168 174.201 20.7428 174.394 20.8488C174.984 21.1672 175.566 21.5012 176.124 21.842C176.313 21.9572 176.372 22.2032 176.257 22.392C176.181 22.5156 176.05 22.5836 175.915 22.5836ZM172.443 20.708C172.386 20.708 172.327 20.6956 172.272 20.6688C171.687 20.3908 171.087 20.1224 170.487 19.872C170.283 19.7868 170.187 19.5524 170.273 19.3484C170.358 19.144 170.593 19.0484 170.796 19.1336C171.407 19.3896 172.02 19.6628 172.616 19.9468C172.815 20.0416 172.9 20.2804 172.805 20.4796C172.736 20.624 172.593 20.708 172.443 20.708ZM132.053 19.714C131.889 19.714 131.735 19.612 131.677 19.4488C131.602 19.2404 131.711 19.0116 131.919 18.9376C132.545 18.7136 133.177 18.4984 133.799 18.2984C134.012 18.2316 134.235 18.3464 134.303 18.5568C134.37 18.7672 134.255 18.9928 134.044 19.0604C133.431 19.2576 132.806 19.4696 132.188 19.6908C132.144 19.7068 132.098 19.714 132.053 19.714ZM168.805 19.182C168.759 19.182 168.713 19.174 168.667 19.1576C168.066 18.9372 167.443 18.7248 166.815 18.5256C166.605 18.4588 166.488 18.234 166.555 18.0232C166.622 17.8132 166.847 17.6952 167.057 17.7632C167.696 17.966 168.33 18.1824 168.942 18.406C169.149 18.482 169.256 18.712 169.181 18.9192C169.121 19.0816 168.967 19.182 168.805 19.182ZM135.81 18.5056C135.636 18.5056 135.476 18.3916 135.426 18.216C135.365 18.0036 135.487 17.782 135.699 17.7212C136.328 17.5408 136.974 17.3668 137.618 17.2048C137.833 17.1512 138.05 17.2808 138.104 17.4952C138.158 17.7096 138.028 17.9268 137.813 17.9808C137.177 18.1404 136.541 18.312 135.921 18.49C135.883 18.5004 135.847 18.5056 135.81 18.5056ZM165.043 17.9884C165.008 17.9884 164.973 17.984 164.938 17.9744C164.321 17.8072 163.682 17.648 163.038 17.5012C162.823 17.4524 162.688 17.238 162.737 17.0224C162.786 16.8076 162.997 16.6708 163.216 16.7216C163.871 16.8708 164.52 17.0324 165.147 17.2028C165.36 17.2608 165.486 17.48 165.428 17.6936C165.38 17.8712 165.219 17.9884 165.043 17.9884ZM139.638 17.5432C139.454 17.5432 139.288 17.4152 139.247 17.2276C139.201 17.012 139.338 16.7992 139.554 16.7524C140.201 16.6124 140.856 16.4824 141.501 16.3652C141.722 16.3256 141.927 16.4708 141.966 16.6876C142.005 16.9052 141.861 17.1132 141.644 17.1528C141.007 17.268 140.361 17.3964 139.723 17.5344C139.695 17.5404 139.666 17.5432 139.638 17.5432ZM161.195 17.1128C161.171 17.1128 161.146 17.1108 161.121 17.106C160.492 16.9888 159.842 16.8812 159.189 16.7856C158.971 16.7536 158.819 16.5504 158.851 16.332C158.883 16.1132 159.085 15.9588 159.305 15.994C159.967 16.0908 160.628 16.2004 161.267 16.3192C161.485 16.3596 161.628 16.5684 161.588 16.7856C161.552 16.9784 161.384 17.1128 161.195 17.1128ZM143.518 16.84C143.323 16.84 143.151 16.6968 143.123 16.498C143.091 16.2792 143.242 16.0764 143.461 16.0444C144.117 15.9484 144.78 15.8632 145.43 15.7904C145.648 15.7684 145.847 15.924 145.872 16.144C145.897 16.3636 145.738 16.5612 145.519 16.5856C144.877 16.6572 144.224 16.7412 143.577 16.8356C143.557 16.8388 143.537 16.84 143.518 16.84ZM157.289 16.544C157.275 16.544 157.261 16.5432 157.247 16.5416C156.609 16.4736 155.953 16.4164 155.295 16.3704C155.075 16.3548 154.909 16.1636 154.924 15.9436C154.939 15.7232 155.133 15.564 155.351 15.572C156.018 15.6184 156.685 15.6772 157.331 15.746C157.551 15.7696 157.71 15.9664 157.687 16.1864C157.665 16.3916 157.491 16.544 157.289 16.544ZM147.437 16.4044C147.23 16.4044 147.055 16.2448 147.039 16.0344C147.022 15.814 147.187 15.6224 147.408 15.6056C148.07 15.5556 148.737 15.5164 149.39 15.49C149.612 15.4672 149.798 15.6524 149.806 15.8732C149.815 16.094 149.644 16.2804 149.423 16.2892C148.779 16.3152 148.121 16.354 147.468 16.4032C147.458 16.404 147.448 16.4044 147.437 16.4044ZM153.352 16.272C153.347 16.272 153.343 16.272 153.339 16.2716C152.767 16.2536 152.192 16.2448 151.628 16.2448L151.381 16.2452C151.38 16.2452 151.38 16.2452 151.379 16.2452C151.159 16.2452 150.98 16.0676 150.979 15.8472C150.978 15.626 151.156 15.4464 151.377 15.4452L151.628 15.4448C152.2 15.4448 152.784 15.454 153.364 15.4724C153.585 15.4792 153.758 15.664 153.752 15.8844C153.745 16.1008 153.567 16.272 153.352 16.272Z" fill="#E0E0E0"/>
<path d="M129.243 20.7961C129.086 20.7961 128.936 20.7028 128.873 20.5484C128.789 20.344 128.886 20.11 129.09 20.026C129.402 19.898 129.714 19.7721 130.024 19.6497C130.23 19.5701 130.462 19.6701 130.543 19.8749C130.624 20.0805 130.523 20.3129 130.318 20.3941C130.01 20.5153 129.703 20.6393 129.395 20.7661C129.345 20.7865 129.294 20.7961 129.243 20.7961Z" fill="#E0E0E0"/>
<path d="M40.1776 57.264L58.5716 48.248L45.306 60.862L40.1776 57.264Z" fill="#F59566"/>
<path d="M58.5716 48.248L38.29 54.92L33.162 51.3216L58.5716 48.248Z" fill="#F59566"/>
<path d="M38.29 54.92L39.0916 60.0704L40.1776 57.264L58.5716 48.248L38.29 54.92Z" fill="#F59566"/>
<path opacity="0.25" d="M38.29 54.92L39.0916 60.0704L40.1776 57.264L58.5716 48.248L38.29 54.92Z" fill="black"/>
<path d="M39.0916 60.0704L41.8868 58.4632L40.1776 57.264L39.0916 60.0704Z" fill="#F59566"/>
<path opacity="0.25" d="M40.1776 57.264L41.8868 58.4632L41.4408 58.7196L40.1776 57.264Z" fill="black"/>
<path d="M41.5596 111.252C41.5148 111.252 41.4688 111.244 41.4244 111.228C40.7756 110.995 40.1424 110.756 39.542 110.519C39.3364 110.438 39.236 110.205 39.3176 110C39.3988 109.794 39.6316 109.694 39.8368 109.775C40.4292 110.01 41.0544 110.246 41.6952 110.476C41.9032 110.55 42.0112 110.78 41.9368 110.987C41.8776 111.15 41.7236 111.252 41.5596 111.252ZM37.8448 109.777C37.7912 109.777 37.7364 109.766 37.6844 109.743C37.0616 109.469 36.4468 109.184 35.8568 108.895C35.6584 108.798 35.5764 108.558 35.6732 108.36C35.7704 108.162 36.01 108.079 36.2084 108.176C36.7892 108.461 37.394 108.742 38.0064 109.011C38.2088 109.1 38.3004 109.336 38.2116 109.538C38.1456 109.688 37.9984 109.777 37.8448 109.777ZM34.258 108.016C34.1932 108.016 34.1272 108 34.0664 107.966C33.4716 107.641 32.884 107.299 32.3212 106.952C32.1328 106.836 32.0748 106.59 32.1904 106.402C32.306 106.214 32.5524 106.155 32.7408 106.271C33.2924 106.612 33.8676 106.946 34.4508 107.265C34.6444 107.371 34.7156 107.614 34.6092 107.808C34.5364 107.941 34.3992 108.016 34.258 108.016ZM30.8596 105.916C30.7808 105.916 30.7012 105.892 30.6312 105.844C30.0724 105.454 29.5264 105.048 29.0088 104.636C28.8356 104.498 28.8072 104.246 28.9448 104.074C29.082 103.901 29.3336 103.872 29.5064 104.01C30.0112 104.411 30.5436 104.808 31.0888 105.188C31.27 105.314 31.314 105.563 31.188 105.745C31.1104 105.856 30.986 105.916 30.8596 105.916ZM27.7368 103.428C27.6404 103.428 27.5436 103.393 27.4668 103.323C26.9648 102.864 26.4788 102.386 26.022 101.901C25.8704 101.74 25.878 101.487 26.0384 101.336C26.1988 101.184 26.452 101.192 26.604 101.352C27.0472 101.822 27.5192 102.286 28.0068 102.732C28.1696 102.881 28.1812 103.134 28.032 103.297C27.9532 103.384 27.8452 103.428 27.7368 103.428ZM25.0004 100.522C24.8832 100.522 24.7676 100.472 24.6888 100.373C24.2656 99.848 23.8592 99.2988 23.4804 98.7412C23.3564 98.5584 23.4044 98.3096 23.5872 98.1856C23.7696 98.0608 24.0184 98.1092 24.1432 98.292C24.5092 98.832 24.902 99.3636 25.3116 99.8716C25.4504 100.044 25.4232 100.296 25.2512 100.434C25.1772 100.494 25.0884 100.522 25.0004 100.522ZM22.7604 97.218C22.6204 97.218 22.4852 97.1448 22.4116 97.0144C22.0828 96.4312 21.7716 95.8228 21.4876 95.206C21.3952 95.0056 21.4828 94.768 21.6836 94.6756C21.8836 94.5828 22.1216 94.6712 22.214 94.8716C22.4892 95.4684 22.7896 96.0572 23.108 96.6212C23.2164 96.8132 23.1488 97.0576 22.956 97.166C22.8944 97.2016 22.8268 97.218 22.7604 97.218ZM21.0868 93.5932C20.9244 93.5932 20.7712 93.4932 20.7116 93.332C20.4812 92.7092 20.2688 92.0612 20.0792 91.4056C20.018 91.1936 20.1404 90.9716 20.3528 90.9104C20.5652 90.8504 20.7868 90.9716 20.848 91.184C21.032 91.8212 21.2384 92.4504 21.4616 93.0552C21.5384 93.2624 21.4328 93.4924 21.2252 93.5688C21.18 93.5852 21.1332 93.5932 21.0868 93.5932ZM19.9736 89.7568C19.7896 89.7568 19.624 89.6292 19.5832 89.442C19.4428 88.7972 19.318 88.128 19.2116 87.4528C19.1776 87.2344 19.3264 87.0296 19.5448 86.9952C19.7632 86.962 19.9676 87.11 20.0024 87.3284C20.106 87.988 20.228 88.6416 20.3652 89.2712C20.412 89.4872 20.2752 89.7 20.0592 89.7472C20.0308 89.754 20.0016 89.7568 19.9736 89.7568ZM19.3492 85.808C19.1468 85.808 18.9732 85.6552 18.952 85.45C18.884 84.8044 18.8292 84.1272 18.7888 83.4384C18.7756 83.218 18.944 83.0288 19.1644 83.0156C19.384 83.01 19.5736 83.1712 19.5872 83.3912C19.6272 84.068 19.6808 84.7328 19.7472 85.3664C19.7704 85.5864 19.6108 85.7828 19.3912 85.806C19.3768 85.8072 19.3628 85.808 19.3492 85.808ZM19.1412 81.8156C19.1388 81.8156 19.1364 81.8156 19.134 81.8156C18.9128 81.8116 18.7372 81.6292 18.7412 81.4084C18.7532 80.7348 18.7936 80.0524 18.8616 79.3796C18.884 79.16 19.0784 79.0036 19.3 79.0216C19.52 79.044 19.68 79.24 19.658 79.46C19.592 80.1108 19.5528 80.7712 19.5416 81.4224C19.5372 81.6412 19.3588 81.8156 19.1412 81.8156ZM19.5404 77.8396C19.5164 77.8396 19.4924 77.8376 19.4676 77.8328C19.2504 77.7928 19.1068 77.5848 19.1464 77.3672C19.268 76.7052 19.418 76.0384 19.5924 75.3852C19.6496 75.1716 19.8724 75.0444 20.082 75.102C20.2956 75.1592 20.4224 75.378 20.3652 75.5916C20.196 76.2244 20.0508 76.8704 19.9332 77.512C19.898 77.7048 19.73 77.8396 19.5404 77.8396ZM20.5712 73.978C20.5272 73.978 20.482 73.9708 20.438 73.9548C20.2296 73.8812 20.1204 73.6528 20.1944 73.4448C20.4184 72.81 20.6716 72.1752 20.9472 71.5576C21.0372 71.356 21.2724 71.2644 21.4752 71.3552C21.6768 71.4452 21.7676 71.6812 21.6776 71.8832C21.4112 72.4812 21.166 73.0964 20.9484 73.7108C20.8904 73.876 20.736 73.978 20.5712 73.978ZM22.1976 70.328C22.1332 70.328 22.0676 70.3124 22.0068 70.2796C21.8128 70.1736 21.7408 69.9312 21.8464 69.7372C22.1696 69.1436 22.5196 68.5564 22.8872 67.9924C23.0076 67.8072 23.2548 67.7552 23.4408 67.8756C23.626 67.9964 23.6784 68.244 23.5576 68.4292C23.2012 68.9756 22.8624 69.5444 22.5496 70.1196C22.4768 70.2524 22.3392 70.328 22.1976 70.328ZM24.3796 66.9796C24.2944 66.9796 24.208 66.9524 24.1356 66.896C23.9604 66.7608 23.9284 66.5096 24.0636 66.3352C24.4768 65.8008 24.9164 65.2768 25.37 64.7788C25.5188 64.6168 25.7716 64.6036 25.9352 64.7528C26.0984 64.9016 26.1104 65.1544 25.9612 65.318C25.522 65.8 25.0964 66.3072 24.6964 66.8244C24.6172 66.9264 24.4992 66.9796 24.3796 66.9796ZM27.0712 64.0276C26.964 64.0276 26.8576 63.9848 26.7788 63.9004C26.628 63.7392 26.6372 63.486 26.7988 63.3352C27.2932 62.874 27.812 62.4284 28.3404 62.0112C28.5144 61.8736 28.7656 61.9032 28.902 62.0768C29.0392 62.2504 29.01 62.502 28.8364 62.6384C28.3252 63.0424 27.8232 63.4736 27.3444 63.92C27.2668 63.992 27.1688 64.0276 27.0712 64.0276ZM30.206 61.5508C30.0768 61.5508 29.9492 61.4884 29.8724 61.3724C29.75 61.1884 29.8 60.94 29.984 60.8176C30.5444 60.4448 31.1284 60.0904 31.72 59.7628C31.9128 59.656 32.1568 59.7252 32.2636 59.9192C32.3708 60.1124 32.3008 60.356 32.1072 60.4628C31.5344 60.7796 30.9692 61.1232 30.4268 61.484C30.3592 61.5292 30.282 61.5508 30.206 61.5508ZM33.7008 59.6156C33.5484 59.6156 33.4028 59.528 33.336 59.3804C33.2448 59.1792 33.3344 58.942 33.5356 58.8512C34.1476 58.5744 34.7804 58.3172 35.416 58.0876C35.6232 58.0124 35.8532 58.1196 35.928 58.328C36.0032 58.536 35.8956 58.7652 35.6876 58.84C35.0716 59.0628 34.4584 59.312 33.8648 59.5804C33.812 59.6044 33.756 59.6156 33.7008 59.6156Z" fill="#E0E0E0"/>
<path d="M134.01 166.152C134.013 166.004 133.944 165.886 133.806 165.795C133.572 165.612 133.275 165.526 132.923 165.536C132.569 165.545 132.261 165.62 131.997 165.76L130.387 166.613C130.519 166.375 130.618 166.13 130.678 165.88C130.725 165.682 130.747 165.482 130.742 165.28C130.734 164.944 130.741 163.078 130.742 162.902C130.745 162.541 130.665 162.174 130.502 161.799C130.258 161.242 129.781 160.704 129.071 160.181C128.579 159.803 127.989 159.388 127.301 158.937C126.612 158.486 125.985 158.104 125.418 157.789C123.957 157.002 122.379 156.373 120.683 155.901C118.986 155.429 117.162 155.201 115.214 155.216C113.266 155.232 111.192 155.528 108.992 156.103C106.792 156.677 104.471 157.612 102.027 158.908C99.9417 160.013 98.3661 161.161 97.3033 162.351C96.2385 163.542 95.5941 164.718 95.3701 165.876C95.3009 166.234 95.2689 166.589 95.2729 166.939C95.2777 167.332 95.2705 169.016 95.2713 169.353C95.2729 170.15 95.4621 170.926 95.8389 171.682C96.3761 172.758 97.2033 173.732 98.3201 174.606C98.5553 174.788 98.8969 175.033 99.3457 175.34C99.7917 175.648 100.27 175.967 100.779 176.301C101.288 176.634 101.782 176.952 102.263 177.252C102.745 177.553 103.137 177.789 103.439 177.959C104.84 178.706 106.427 179.29 108.197 179.711C109.967 180.133 111.832 180.339 113.791 180.33C115.749 180.321 117.773 180.063 119.864 179.558C121.953 179.053 124.041 178.249 126.126 177.144C127.803 176.256 129.142 175.415 130.145 174.624C131.147 173.832 131.921 173.091 132.469 172.398C133.016 171.706 133.387 171.048 133.584 170.424C133.78 169.8 133.92 169.218 134.004 168.676C134.008 168.65 134.01 168.625 134.01 168.601C134.011 168.455 134.01 166.175 134.01 166.152ZM128.011 169.026C127.797 169.34 127.491 169.686 127.092 170.063C126.691 170.44 126.173 170.846 125.535 171.279C124.895 171.712 124.085 172.19 123.103 172.71C121.713 173.446 120.302 173.999 118.871 174.368C117.439 174.736 116.034 174.937 114.654 174.971C113.276 175.005 111.947 174.887 110.669 174.618C109.391 174.35 108.202 173.939 107.101 173.388C106.773 173.23 106.384 173.011 105.933 172.73C105.483 172.448 105.022 172.154 104.553 171.847C104.084 171.54 103.641 171.243 103.224 170.955C102.807 170.668 102.492 170.427 102.281 170.231C101.467 169.528 100.89 168.781 100.55 167.991C100.511 167.901 100.477 167.81 100.446 167.72C100.688 167.027 101.141 166.336 101.808 165.646C102.58 164.847 103.661 164.078 105.051 163.342C106.703 162.465 108.275 161.798 109.765 161.34C110.591 161.086 111.393 160.898 112.177 160.765L111.765 160.983C111.501 161.123 111.354 161.296 111.322 161.502C111.29 161.709 111.384 161.883 111.603 162.026L111.873 162.203C111.182 162.12 110.471 162.124 109.742 162.214C109.013 162.306 108.159 162.611 107.177 163.131C106.29 163.602 105.643 164.122 105.236 164.693C104.879 165.192 104.702 165.705 104.703 166.232C104.703 166.308 104.704 168.282 104.703 168.688C104.703 168.763 104.707 168.838 104.714 168.913C104.773 169.519 105.046 170.138 105.531 170.768C106.015 171.398 106.718 172.013 107.635 172.614C108.553 173.216 109.524 173.688 110.548 174.032C111.572 174.376 112.61 174.588 113.665 174.668C114.717 174.748 115.75 174.692 116.757 174.501C117.766 174.31 118.714 173.979 119.6 173.509C120.343 173.116 120.917 172.752 121.32 172.42C121.723 172.088 122.013 171.781 122.188 171.499C122.363 171.216 122.459 170.953 122.475 170.708C122.492 170.464 122.495 170.224 122.487 169.992C123.162 170.036 123.975 169.979 124.924 169.819C125.87 169.659 126.945 169.262 128.142 168.627C128.206 168.593 128.264 168.556 128.326 168.522C128.231 168.685 128.129 168.852 128.011 169.026ZM113.736 166.666C114.727 166.791 115.715 167.173 116.691 167.813C117.048 168.046 117.343 168.275 117.583 168.499C117.445 168.598 117.292 168.695 117.114 168.789C116.274 169.234 115.359 169.4 114.366 169.288C113.371 169.176 112.385 168.8 111.407 168.16C111.041 167.92 110.736 167.682 110.494 167.448C110.62 167.357 110.758 167.269 110.918 167.184C111.804 166.715 112.744 166.542 113.736 166.666ZM124.886 164.298C124.461 164.483 123.985 164.591 123.453 164.614C122.822 164.641 122.266 164.497 121.787 164.184L116.372 160.638C116.917 160.701 117.459 160.788 117.994 160.916C119.286 161.223 120.553 161.699 121.795 162.341C122.386 162.643 122.975 162.986 123.564 163.372C124.039 163.684 124.474 163.992 124.886 164.298Z" fill="#F59566"/>
<path opacity="0.2" d="M134.01 166.152C134.013 166.004 133.944 165.886 133.806 165.795C133.572 165.612 133.275 165.526 132.923 165.536C132.569 165.545 132.261 165.62 131.997 165.76L130.387 166.613C130.519 166.375 130.618 166.13 130.678 165.88C130.725 165.682 130.747 165.482 130.742 165.28C130.734 164.944 130.741 163.078 130.742 162.902C130.745 162.541 130.665 162.174 130.502 161.799C130.258 161.242 129.781 160.704 129.071 160.181C128.579 159.803 127.989 159.388 127.301 158.937C126.612 158.486 125.985 158.104 125.418 157.789C123.957 157.002 122.379 156.373 120.683 155.901C118.986 155.429 117.162 155.201 115.214 155.216C113.266 155.232 111.192 155.528 108.992 156.103C106.792 156.677 104.471 157.612 102.027 158.908C99.9417 160.013 98.3661 161.161 97.3033 162.351C96.2385 163.542 95.5941 164.718 95.3701 165.876C95.3009 166.234 95.2689 166.589 95.2729 166.939C95.2777 167.332 95.2705 169.016 95.2713 169.353C95.2729 170.15 95.4621 170.926 95.8389 171.682C96.3761 172.758 97.2033 173.732 98.3201 174.606C98.5553 174.788 98.8969 175.033 99.3457 175.34C99.7917 175.648 100.27 175.967 100.779 176.301C101.288 176.634 101.782 176.952 102.263 177.252C102.745 177.553 103.137 177.789 103.439 177.959C104.84 178.706 106.427 179.29 108.197 179.711C109.967 180.133 111.832 180.339 113.791 180.33C115.749 180.321 117.773 180.063 119.864 179.558C121.953 179.053 124.041 178.249 126.126 177.144C127.803 176.256 129.142 175.415 130.145 174.624C131.147 173.832 131.921 173.091 132.469 172.398C133.016 171.706 133.387 171.048 133.584 170.424C133.78 169.8 133.92 169.218 134.004 168.676C134.008 168.65 134.01 168.625 134.01 168.601C134.011 168.455 134.01 166.175 134.01 166.152ZM128.011 169.026C127.797 169.34 127.491 169.686 127.092 170.063C126.691 170.44 126.173 170.846 125.535 171.279C124.895 171.712 124.085 172.19 123.103 172.71C121.713 173.446 120.302 173.999 118.871 174.368C117.439 174.736 116.034 174.937 114.654 174.971C113.276 175.005 111.947 174.887 110.669 174.618C109.391 174.35 108.202 173.939 107.101 173.388C106.773 173.23 106.384 173.011 105.933 172.73C105.483 172.448 105.022 172.154 104.553 171.847C104.084 171.54 103.641 171.243 103.224 170.955C102.807 170.668 102.492 170.427 102.281 170.231C101.467 169.528 100.89 168.781 100.55 167.991C100.511 167.901 100.477 167.81 100.446 167.72C100.688 167.027 101.141 166.336 101.808 165.646C102.58 164.847 103.661 164.078 105.051 163.342C106.703 162.465 108.275 161.798 109.765 161.34C110.591 161.086 111.393 160.898 112.177 160.765L111.765 160.983C111.501 161.123 111.354 161.296 111.322 161.502C111.29 161.709 111.384 161.883 111.603 162.026L111.873 162.203C111.182 162.12 110.471 162.124 109.742 162.214C109.013 162.306 108.159 162.611 107.177 163.131C106.29 163.602 105.643 164.122 105.236 164.693C104.879 165.192 104.702 165.705 104.703 166.232C104.703 166.308 104.704 168.282 104.703 168.688C104.703 168.763 104.707 168.838 104.714 168.913C104.773 169.519 105.046 170.138 105.531 170.768C106.015 171.398 106.718 172.013 107.635 172.614C108.553 173.216 109.524 173.688 110.548 174.032C111.572 174.376 112.61 174.588 113.665 174.668C114.717 174.748 115.75 174.692 116.757 174.501C117.766 174.31 118.714 173.979 119.6 173.509C120.343 173.116 120.917 172.752 121.32 172.42C121.723 172.088 122.013 171.781 122.188 171.499C122.363 171.216 122.459 170.953 122.475 170.708C122.492 170.464 122.495 170.224 122.487 169.992C123.162 170.036 123.975 169.979 124.924 169.819C125.87 169.659 126.945 169.262 128.142 168.627C128.206 168.593 128.264 168.556 128.326 168.522C128.231 168.685 128.129 168.852 128.011 169.026ZM113.736 166.666C114.727 166.791 115.715 167.173 116.691 167.813C117.048 168.046 117.343 168.275 117.583 168.499C117.445 168.598 117.292 168.695 117.114 168.789C116.274 169.234 115.359 169.4 114.366 169.288C113.371 169.176 112.385 168.8 111.407 168.16C111.041 167.92 110.736 167.682 110.494 167.448C110.62 167.357 110.758 167.269 110.918 167.184C111.804 166.715 112.744 166.542 113.736 166.666ZM124.886 164.298C124.461 164.483 123.985 164.591 123.453 164.614C122.822 164.641 122.266 164.497 121.787 164.184L116.372 160.638C116.917 160.701 117.459 160.788 117.994 160.916C119.286 161.223 120.553 161.699 121.795 162.341C122.386 162.643 122.975 162.986 123.564 163.372C124.039 163.684 124.474 163.992 124.886 164.298Z" fill="black"/>
<path opacity="0.1" d="M100.445 167.72C100.687 167.027 101.14 166.336 101.806 165.646C102.578 164.847 103.66 164.078 105.049 163.342C106.702 162.465 108.273 161.798 109.764 161.34C110.589 161.086 111.392 160.898 112.176 160.765L113.633 159.993C113.895 159.854 114.203 159.784 114.556 159.788C114.905 159.791 115.191 159.864 115.41 160.008L116.372 160.638C116.917 160.701 117.458 160.788 117.993 160.916C119.286 161.223 120.553 161.699 121.795 162.341C122.385 162.643 122.975 162.986 123.563 163.372C124.039 163.683 124.474 163.991 124.885 164.298C124.963 164.264 125.043 164.232 125.117 164.193C125.596 163.938 125.875 163.631 125.954 163.27C126.031 162.91 125.774 162.508 125.184 162.064C124.693 161.686 124.153 161.304 123.563 160.918C122.975 160.533 122.385 160.19 121.795 159.887C120.553 159.245 119.286 158.77 117.993 158.462C116.699 158.154 115.375 158.034 114.026 158.1C112.674 158.166 111.252 158.428 109.764 158.886C108.273 159.345 106.702 160.012 105.049 160.888C103.66 161.624 102.578 162.393 101.806 163.193C101.033 163.992 100.546 164.794 100.343 165.599C100.142 166.404 100.21 167.201 100.549 167.991C100.51 167.9 100.476 167.81 100.445 167.72Z" fill="black"/>
<path opacity="0.1" d="M116.692 165.359C115.714 164.719 114.728 164.337 113.736 164.212C112.744 164.088 111.804 164.262 110.918 164.731C110.078 165.176 109.707 165.698 109.801 166.298C109.86 166.675 110.092 167.059 110.498 167.451C110.497 167.45 110.496 167.449 110.494 167.448C110.62 167.358 110.758 167.269 110.918 167.184C111.804 166.715 112.744 166.542 113.736 166.666C114.727 166.791 115.714 167.173 116.692 167.813C117.048 168.046 117.343 168.275 117.583 168.499C117.516 168.547 117.445 168.594 117.37 168.641C118.075 168.21 118.393 167.734 118.317 167.212C118.23 166.631 117.69 166.014 116.692 165.359Z" fill="black"/>
<path opacity="0.1" d="M113.664 172.214C112.609 172.134 111.571 171.922 110.547 171.578C109.523 171.234 108.552 170.761 107.634 170.16C106.717 169.559 106.014 168.944 105.53 168.314C105.045 167.684 104.772 167.065 104.713 166.459C104.702 166.34 104.706 166.222 104.712 166.104C104.71 166.146 104.702 166.189 104.702 166.232C104.702 166.307 104.702 168.282 104.702 168.688C104.702 168.762 104.706 168.837 104.713 168.912C104.772 169.519 105.045 170.138 105.529 170.767C106.013 171.398 106.716 172.012 107.634 172.614C108.552 173.215 109.523 173.688 110.547 174.032C111.571 174.376 112.609 174.588 113.664 174.668L113.664 172.214Z" fill="black"/>
<path opacity="0.1" d="M122.486 167.538C122.494 167.77 122.491 168.009 122.474 168.254L122.486 169.991C123.162 170.036 123.974 169.978 124.922 169.818V167.364C123.974 167.524 123.162 167.582 122.486 167.538Z" fill="black"/>
<path opacity="0.1" d="M108.197 177.257C106.426 176.836 104.84 176.252 103.439 175.505C103.136 175.335 102.745 175.099 102.263 174.798C101.782 174.498 101.288 174.18 100.779 173.847C100.27 173.513 99.7915 173.194 99.3455 172.886C98.8967 172.58 98.5551 172.334 98.3199 172.152C97.2031 171.278 96.3759 170.304 95.8387 169.228C95.4595 168.468 95.2743 167.686 95.2755 166.883C95.2755 166.902 95.2731 166.92 95.2731 166.939C95.2779 167.332 95.2707 169.016 95.2715 169.353C95.2731 170.15 95.4623 170.926 95.8391 171.682C96.3763 172.758 97.2035 173.732 98.3203 174.606C98.5555 174.788 98.8971 175.033 99.3459 175.34C99.7919 175.648 100.27 175.967 100.779 176.301C101.288 176.634 101.782 176.952 102.263 177.252C102.746 177.553 103.137 177.789 103.44 177.959C104.84 178.706 106.427 179.29 108.198 179.711C109.967 180.133 111.832 180.339 113.792 180.33V177.876C111.832 177.885 109.967 177.679 108.197 177.257Z" fill="black"/>
<path d="M129.072 160.181C129.782 160.704 130.259 161.243 130.503 161.8C130.745 162.357 130.804 162.899 130.678 163.427C130.552 163.954 130.265 164.456 129.818 164.929C129.372 165.402 128.811 165.817 128.141 166.173C126.943 166.808 125.869 167.205 124.922 167.364C123.974 167.524 123.161 167.582 122.486 167.538C122.494 167.77 122.491 168.009 122.473 168.254C122.457 168.499 122.361 168.762 122.186 169.045C122.012 169.327 121.722 169.634 121.319 169.966C120.916 170.298 120.342 170.661 119.599 171.055C118.712 171.525 117.765 171.856 116.756 172.047C115.749 172.238 114.716 172.294 113.664 172.214C112.609 172.134 111.571 171.922 110.547 171.578C109.523 171.234 108.552 170.761 107.634 170.16C106.716 169.559 106.013 168.944 105.529 168.314C105.045 167.684 104.771 167.065 104.713 166.459C104.653 165.852 104.826 165.263 105.234 164.692C105.641 164.122 106.288 163.601 107.176 163.131C108.157 162.61 109.012 162.306 109.741 162.214C110.47 162.124 111.18 162.12 111.871 162.203L111.602 162.026C111.382 161.882 111.289 161.708 111.32 161.502C111.352 161.296 111.5 161.122 111.763 160.983L113.632 159.992C113.895 159.853 114.203 159.784 114.556 159.787C114.905 159.791 115.191 159.864 115.41 160.008L121.786 164.183C122.265 164.497 122.822 164.641 123.452 164.614C124.083 164.587 124.638 164.447 125.117 164.192C125.596 163.938 125.875 163.631 125.953 163.27C126.03 162.91 125.774 162.508 125.184 162.064C124.692 161.686 124.152 161.304 123.563 160.918C122.974 160.532 122.385 160.189 121.794 159.887C120.552 159.244 119.286 158.769 117.993 158.462C116.698 158.154 115.375 158.033 114.025 158.099C112.673 158.165 111.251 158.428 109.763 158.886C108.273 159.344 106.701 160.011 105.048 160.888C103.659 161.624 102.578 162.393 101.806 163.192C101.032 163.992 100.546 164.794 100.342 165.599C100.142 166.404 100.209 167.201 100.548 167.99C100.888 168.781 101.465 169.527 102.279 170.231C102.49 170.426 102.805 170.667 103.222 170.955C103.639 171.242 104.082 171.54 104.551 171.846C105.02 172.154 105.481 172.448 105.932 172.729C106.382 173.01 106.771 173.23 107.099 173.387C108.2 173.938 109.39 174.349 110.667 174.618C111.945 174.887 113.274 175.004 114.652 174.97C116.032 174.937 117.437 174.736 118.869 174.368C120.3 173.999 121.712 173.446 123.101 172.71C124.084 172.189 124.894 171.712 125.534 171.279C126.172 170.846 126.69 170.44 127.091 170.063C127.49 169.685 127.795 169.34 128.01 169.026C128.222 168.712 128.396 168.413 128.528 168.13C128.633 167.886 128.727 167.7 128.813 167.572C128.899 167.444 129.073 167.309 129.337 167.17L131.996 165.76C132.26 165.621 132.568 165.546 132.922 165.536C133.274 165.526 133.57 165.612 133.804 165.795C133.964 165.9 134.031 166.042 134.003 166.222C133.919 166.764 133.778 167.346 133.582 167.97C133.386 168.594 133.015 169.252 132.468 169.944C131.92 170.637 131.146 171.378 130.144 172.17C129.14 172.961 127.801 173.802 126.124 174.69C124.04 175.796 121.952 176.6 119.863 177.105C117.772 177.61 115.748 177.867 113.79 177.876C111.831 177.886 109.966 177.68 108.196 177.258C106.426 176.837 104.839 176.252 103.438 175.505C103.136 175.335 102.744 175.099 102.262 174.798C101.781 174.498 101.287 174.181 100.778 173.847C100.269 173.514 99.7907 173.194 99.3451 172.887C98.8963 172.58 98.5547 172.335 98.3195 172.152C97.2027 171.279 96.3755 170.304 95.8383 169.228C95.3023 168.153 95.1459 167.036 95.3699 165.876C95.5935 164.718 96.2379 163.542 97.3031 162.351C98.3663 161.161 99.9419 160.013 102.026 158.908C104.471 157.612 106.792 156.678 108.992 156.103C111.192 155.528 113.266 155.233 115.214 155.216C117.162 155.201 118.986 155.429 120.683 155.901C122.379 156.374 123.957 157.003 125.418 157.789C125.985 158.104 126.613 158.486 127.301 158.938C127.99 159.389 128.58 159.803 129.072 160.181ZM111.408 168.16C112.386 168.8 113.372 169.177 114.366 169.288C115.36 169.4 116.274 169.234 117.115 168.789C118.001 168.32 118.402 167.794 118.317 167.212C118.23 166.631 117.69 166.013 116.692 165.359C115.715 164.719 114.728 164.337 113.736 164.212C112.744 164.088 111.804 164.262 110.918 164.731C110.078 165.176 109.707 165.698 109.801 166.298C109.894 166.899 110.43 167.52 111.408 168.16Z" fill="#F59566"/>
<path d="M129.63 149.282V149.576C129.63 150.047 129.961 150.619 130.368 150.854L146.2 159.994C146.607 160.23 147.268 160.23 147.676 159.994L173.891 144.859C174.298 144.624 174.629 144.051 174.629 143.581V143.286C174.629 142.816 174.298 142.244 173.891 142.008L158.06 132.868C157.652 132.633 156.991 132.633 156.584 132.868L130.368 148.004C129.961 148.24 129.63 148.812 129.63 149.282Z" fill="#F59566"/>
<path d="M129.63 149.282V149.576C129.63 150.047 129.961 150.619 130.368 150.854L146.2 159.994C146.607 160.23 147.268 160.23 147.676 159.994L173.891 144.859C174.298 144.624 174.629 144.051 174.629 143.581V143.286C174.629 142.816 174.298 142.244 173.891 142.008L158.06 132.868C157.652 132.633 156.991 132.633 156.584 132.868L130.368 148.004C129.961 148.24 129.63 148.812 129.63 149.282Z" fill="#F59566"/>
<path opacity="0.2" d="M146.938 138.438L130.368 148.004C129.961 148.24 129.63 148.812 129.63 149.282V149.576C129.63 150.047 129.961 150.619 130.368 150.854L146.2 159.994C146.403 160.112 146.67 160.171 146.937 160.171H146.938V138.438Z" fill="black"/>
<path opacity="0.15" d="M146.938 138.438L130.368 148.004C129.961 148.24 129.63 148.812 129.63 149.282V149.576C129.63 150.047 129.961 150.619 130.368 150.854L146.2 159.994C146.403 160.112 146.67 160.171 146.937 160.171H146.938V138.438Z" fill="black"/>
<path opacity="0.2" d="M173.89 142.009L158.059 132.869C157.652 132.634 156.991 132.634 156.583 132.869L146.937 138.438V160.172C147.204 160.172 147.471 160.113 147.675 159.995L173.89 144.86C174.298 144.624 174.628 144.052 174.628 143.582V143.287C174.629 142.816 174.298 142.244 173.89 142.009Z" fill="black"/>
<path d="M143.665 156.533L130.368 148.856C129.961 148.621 129.961 148.239 130.368 148.004L156.584 132.868C156.991 132.633 157.652 132.633 158.06 132.868L173.891 142.008C174.298 142.244 174.298 142.625 173.891 142.86L169.542 145.371L168.02 146.25L147.676 157.996C147.268 158.231 146.608 158.231 146.2 157.996L144.91 157.251L143.665 156.533Z" fill="#F59566"/>
<path opacity="0.15" d="M155.735 143.78L173.891 142.009L155.895 143.028L158.06 132.869C157.838 132.741 157.544 132.689 157.256 132.7L153.86 146.432L130.069 148.394C130.052 148.56 130.149 148.729 130.368 148.856L149.582 147.741L146.938 158.173L150.319 147.698L153.601 147.508C154.014 147.484 154.391 147.317 154.684 147.055L154.686 147.055L154.686 147.052C154.96 146.807 155.16 146.479 155.24 146.1L155.735 143.78Z" fill="black"/>
<path opacity="0.3" d="M135.745 147.926L153.86 146.432L154.509 143.836L154.867 142.391L157.258 132.7C157.013 132.708 156.771 132.761 156.584 132.869L143.476 140.436L130.369 148.004C130.181 148.112 130.084 148.252 130.069 148.394L133.703 148.094L135.745 147.926Z" fill="white"/>
</svg>
